<?xml version="1.0" encoding="UTF-8"?>
<svg id="Ebene_1" data-name="Ebene 1" xmlns="http://www.w3.org/2000/svg" viewBox="0 0 332.21 252.63">
  <defs>
    <style>
      .cls-1 {
        stroke: #1d1d1b;
        stroke-miterlimit: 10;
        stroke-width: .5px;
      }
    </style>
  </defs>
  <path class="cls-1" d="M95.98,82.02c-4.1,1.48-9.1-.3-12.34-2.45-1.54-1.02-2.12-3.61-3.11-4.82-4.29-5.24-2.83-11.84,1.69-15.96,3.17-2.89,5.38-3.42,9.92-2.76,8.79,1.28,16.53,10.79,12.4,19.88-1.16,2.55-6.03,5.19-8.56,6.11ZM99.41,76.86c.86-.75,2.65-1.75,2.9-2.99.99-4.78-.78-10.3-5.18-12.83-2.09-1.2-4.5-1.65-7.01-2.72-1.01,2.69-3.58,1.8-5.18,2.53-5.12,2.35-4.63,8.63-2,12.47,2.22,3.24,3.53,5.59,7.07,6.15s6.28.1,9.39-2.61Z"/>
  <path class="cls-1" d="M189.58,152.83c-2.58-9.74-12.61-16.72-19.49-12.52-.63.38-1.51,2.04-2.2,2.16-2.6.45-2.98-5.72-7.16-7.3l-1.83-.75c-.61-.29-1.64-.81-2.03-.99-1.53-.72-2.13-.84-3.77-.99-7.21-.64-7.85,8.31-12.74,4.86-.95-.67-1.03-3.2-1.01-4.5.15-9.12-1.79-33.34-3.43-42.09-.32-1.69-2.09-3-3.4-3.35-3.84-1.03-7.66,4.19-7.69,8.05-.01,2.69-.87,5.28-1.05,7.97-.55,8.04-1.16,15.86-.94,23.91.3,10.77-.07,21.12-1.47,31.78-.8,6.03,1.28,11.6-2.19,15.05-.92.91-2.99-.19-3.54-.96-.72-1.02-.44-2.72-.64-4.09-.83-5.72-4.94-9.89-8.39-14.39s-7.68-7.76-13.26-8.57c-.53-.08-1.83.33-2.23.68-.46.4-.62,1.75-.32,2.47l3.05,7.36,4.18,14.96,3.17,11.57c2.17,7.95,4.74,15.45,6.55,23.43l2.14,9.45c1.29,5.68,4.96,10.65,8.04,15.57,4.31,6.86,10.55,11.07,18.24,13.23,4.88,1.37,9.53,3.82,14.64,3.97l12.88.38c.58.02,1.05,1.31.8,1.71-.28.46-1.29,1.54-1.94,1.52-18.2-.42-11.53.48-28.86-4.98-15.23-4.79-20.49-16.53-26.8-30.2-3.13-.67-6.41-1.76-9.62-1.92l-34.71-1.63c-8.83-.41-17.32.49-26.09-.56s-16.63-.78-25.17-.69c-3.19.03-5.72-1.14-8.8,1.81-1.88-11-1.11-18.18-2.14-29.57-.52-5.72,1-11.02,1.16-16.7l.78-29.42-.53-21.05-.19-22.77c-.05-5.34-.57-10.3-.69-15.57-.19-8.43.13-16.66.5-25.04l.68-15.54c.2-4.62-.42-8.76-.52-13.33l-.41-19.19c0-.45.27-1.49.64-1.71s1.4-.19,1.81-.07c4.84,1.47,5.74-.49,11.79-.28l2.25-3.71c6.84,1.15,13.2,1.59,20.02,1.05,8.51-.68,16.41.79,24.82,1.07l21.98.72c7.43.24,14.37.53,21.62,2.04l11.13,2.32c7.08,1.48,13.67,3.41,20.2,6.75l19.68,10.07c8.8,4.51,5.52,11.78,11.28,6.86,4.91-4.19,10.75-6.2,16.36-9.22,3.74-2.01,7.39-3.53,11.25-5.28,5.35-2.43,10.26-4.7,16.12-6.07,9.55-2.24,19.17-4.71,29-5.47,4.47-.34,8.11-.49,12.48-1.56,3.45-.85,7.8-1.06,11.45-.89,7.54.37,14.51-.62,21.94-.79l18.29-.41,11.22.4c-1.69,7.14,5.62,1.3,13.06,3.16,1.96,5.74,2.1,11.66,1.2,17.63s-.37,11.98.23,18.11c.52,5.28-.82,10.45-.9,15.64l-.19,12.06,1.15,18.26c.45,7.14-1.14,13.98-.19,21.19,1.5,11.4.1,25.91.49,38.48.19,6.08-.46,11.63-.38,17.7l.29,22.51c.05,3.63.8,6.53.73,9.99l-.35,17.12c-.04,2.11-2.79,3.23-4.61,3.2-8.1-.13-15.89-.62-24.01-.32-5.49.21-10.66-.37-16.09.03l-13.79,1.01c-6.61.48-12.95-.66-19.6.23-16.1,2.14-30.2-.05-44.59,3.16-1.03.23-3.22.84-4.23,1.31-1.39.65-2.76,1.16-4.23,1.76-2.3.95-2.92,10.28-15.05,18.91-2.07,1.47-3.78,3.13-6.21,4.02-2.09.76-3.74,2.07-5.17,3.91-.65.83-3.63,1.67-3.64.36-.02-2.4,3.18-4.41,5.19-5.41,2.89-1.43,5.12-3.24,7.63-4.94,5.86-3.95,9.24-9.28,12.65-15.29,3.58-6.32,5.61-12.5,6.92-19.85l2.75-15.5c.76-4.27.75-8.21,1.04-12.5l.83-12.53c.53-7.95-7.14-14.03-14.29-12.95-1,.15-3.28,1.38-3.51.49ZM202.91,219.72c2.2-.58,4.18-1.66,6.18-1.9l10.22-1.22,11.05-.61c6.57-.36,12.95.16,19.51-.83,8.16-1.24,15.97-.58,24.13-.83l21.51-.65c10.45-.32,21.18-.48,31.52.33.51.04,1.75-1.05,1.67-1.51-.89-4.8.81-10.24.33-14.98-.4-3.89-.83-7.1-.88-11.06l-.33-23.41c-.07-4.96.57-9.37.5-14.34l-.24-15.16c-.09-5.8.78-11.47.14-17.24-1.14-10.26.01-20.18-.57-30.45l-1.01-17.75.36-13.31c.2-7.16,1.06-13.47.18-20.57-.91-7.32,2.28-18.74.17-26.4-3.65-.25-7.29.1-11.04.8l1.35,24.59-.22,23.84c-.04,4.21.35,8.05.3,12.29l-.24,24.69c-.04,4.18-.46,7.75-.39,11.89l.38,22.12v10.57c.02,9.04-.19,17.48.68,26.44.33,3.44-.42,16.16.25,24.37.23,2.74.28,6.69-1.77,8.61-1.49,1.41-4.49-.15-6.34-.08l-13.86.52c-12.25.46-24.05.83-36.23,1.69l-13.93.98c-6.44.45-13.07,1.3-19.38,2.64-5.89,1.26-11.12,3.85-16.81,5.59-.6.18-2.33-.3-2.11-.84.18-.46.82-1.78,1.39-1.97,19.56-6.74,14.41-6.55,36.95-8.42l14.37-1.19c9.21-.76,18.1.5,27.37-.67,8.55-1.08,16.64-1.34,25.44-1.16,1.3-.07,1.55-3.6,1.55-5.1l-.1-15.4.11-8.82-.87-12.14c-.39-5.49.08-10.86.07-16.31v-8.35s-.49-22.93-.49-22.93c-.08-3.8.31-7.02.36-10.85l.32-25.39c.06-4.63-.49-8.89-.44-13.42l.14-13.46c.06-6.03.14-11.72-.19-17.79l-.67-12.5c-.14-2.54.22-4.99.23-7.63-4.77-.99-9.07-.61-13.72-.5l-14.88.36c-7.34.18-14.3,1.05-21.65.56-5.73-.38-11.04,1.75-16.64,2.09-7.4.45-14.31,1.18-21.59,2.91-5.71,1.35-11.24,2.49-16.88,4.14-5.2,1.53-16.23,6.77-21.37,9.38-3.05,1.55-20.4,9.02-19.76,12.78.85,5.08.37,9.66.6,14.68.33,7.59.49,14.89-.04,22.58-.47,6.87.17,13.62.9,20.46.69,6.55.25,12.9.51,19.49l.52,13.38c.02.63-1.27,1.48-1.8,1.25-.46-.19-1.27-1.17-1.3-1.78-.16-4.11-.5-8.51-.4-12.88.17-7.02.15-13.63-.66-20.59-2.21-19.06.85-25.46-1.03-41.82-.43-3.7,1.63-8.53-.39-11.73-1.3-2.06-1.85-2.85-2.19-5.03-.5-3.13-3.53-6.35-6.44-7.83l-21.6-11.01c-5.49-2.8-11.02-4.11-16.92-5.52-5.18-1.24-17.24-3.84-22.06-4l-10.25-.33c-7.13-.23-13.97.02-21.11-.59l-16.77-1.44-20.69.25-6.92-.81c-2.86,7.01-1.34,14.06-1.21,21.24.1,5.62-1.13,10.88-.39,16.55.51,3.88-.36,7.79-.61,11.65-.33,5.01,1.59,9.73,1.83,14.7l.93,18.7c.36,7.23-1.16,14.06-.28,21.28,1.38,11.39-.14,22.58.12,34.01.14,5.91,1,11.17.08,17.13-.57,3.67.54,7.66.24,11.43-.55,7.04-.28,13.61.82,20.53.16,1.03-.19,3.26.66,3.85,2.53,1.77,5.92.24,8.81.27l36.94.35,17.79,1.43c5.66.46,10.8,1.54,16.05,3.65.71.29,1.22,1.98.66,2.35-2.44,1.63-5.58-2.08-15.07-2.85l-19.68-1.61-36.29-.34c-2.49-.02-5.47.63-7.85.46-.94-.06-3.1,1.25-3.66.53-1.58-1.99-1.03-4.8-1.36-7.18-1.11-7.83-1.19-15.28-.72-23.09.2-3.34-.91-6.91-.31-10.21.96-5.31-.06-10.06-.13-15.36-.16-11.14,1.38-21.99.24-33.07-.54-5.22-.74-10.25-.25-15.51.53-5.77.2-11.2-.14-16.99-.3-5.14-.27-10.06-1.44-15.07-1.22-5.26-.19-10.24-.25-15.56l-.14-14.02c-.05-4.8.95-8.92.03-13.72-.58-3.03,1.13-10.91-.76-12.15-1.55-1.01-6.16,1.17-9.7.55l.37,17.66c.1,4.62.81,8.88.59,13.52l-.77,17.02c-.37,8.15-.77,16.23-.38,24.35l.64,13.3.28,27.05c.08,7.75,1.12,15.2.39,22.94-.69,7.32.12,14.45-.45,21.74l-1.36,17.6c-.66,8.58,1.17,16.72,1.02,25.55,2.16.87,4.66,1.4,6.98,1.31,17.47-.67,27.1,1.59,42.71,1.22,5.45-.13,10.34.1,15.78.39l29,1.55c2.43.13,4.51,1.23,7.21,1.31-.51-4.07-1.54-7.65-3.03-11.34-2.01-4.99-2.49-10.11-3.95-15.33l-8.62-30.94c-.89-3.19-3.28-5.71-2.64-9.54-4.55.15-8.05.55-12.09-.48-1.81-.46-4.36-2.49-3.97-4.51.68-3.51,3.98-6.03,6.99-7.55,1.6-.81,2.24-1.89,2.16-3.72l-.97-20.42c-.22-4.58-.07-9.2-3.35-12.84-.92-1.02-3.15-1.16-4.78-1.65-2.39-.71-3.89-5.64-1.35-7.28,3.37-2.18,8.49-3.68,12.48-3.09,4.28.63,7.78,1.33,12.11,1.34,2.68,0,6.56,1.22,7.04,4.33,2.59,16.63-1.31,20-1.06,25.73.18,4.2.31,8.36.18,12.47-.1,3.37,1.96,4.81,4.92,5.64s5.31,1.77,8.44,1.73c.67,2.26.95,5.22-.19,7.51-.71,1.42-3,1.81-4.46,1.88l-7.63.38c7.1,5.32,11.04,12.25,15.87,20.08.13-5.91.54-11.39,1.16-17.15.92-8.45.3-16.46.43-24.76.12-7.3.19-14.33,1.1-21.47l1.17-9.14c.46-3.61,2.72-6.63,6.14-8.67s9.81.29,10.73,4.5c1.93,8.86,1.93,17.5,2.88,26.4.57,5.36.88,10.35.89,16.06,7.87-7.17,19.57-2.72,24.89,5.63,10.47-4.07,18.75,1.06,23.57,10.15.51.95,2.25,1.51,3.37,1.51,9.88.02,16.64,7.84,15.96,17.8l-1.26,18.72c-.52,7.73-4.16,25.53-6.23,33.82ZM99.94,145.47c3.93-5.72,11.01.38,12.38-3.88.32-1-.52-2.58-1.75-2.96l-7.19-2.17c-7.9-2.39-4.68-10.09-5.23-15.1-.6-5.49.48-10.05,1.47-15.35.78-4.18-.29-8.79-.24-13.06.02-1.98-1.49-3.45-3.33-3.62l-8.34-.74c-4.91-.44-9.73-1.34-14.43.95-.59.29-1.21,1.65-1.08,2.26.48,2.27,4.28,1.4,5.93,2.96,4.36,4.12,4.97,9.51,4.93,15.16-.05,6.93.4,13.49.96,20.3.51,6.27-4.38,4.46-8.51,9.83-.48.63-.6,2.16-.18,2.71,1.62,2.1,11.29,1.4,14.45,1.16,3.58-.28,6.7-1.08,10.15,1.56Z"/>
</svg>