<?xml version="1.0" encoding="UTF-8"?>
<svg id="Ebene_1" data-name="Ebene 1" xmlns="http://www.w3.org/2000/svg" viewBox="0 0 378.7 98.42">
  <defs>
    <style>
      .cls-1 {
        stroke-width: 2.12px;
      }

      .cls-1, .cls-2, .cls-3 {
        fill: #1d1d1b;
      }

      .cls-1, .cls-3 {
        stroke: #fff;
        stroke-miterlimit: 10;
      }

      .cls-2 {
        font-family: MyriadPro-Regular, 'Myriad Pro';
        font-size: 8.48px;
      }

      .cls-3 {
        stroke-width: 1.41px;
      }
    </style>
  </defs>
  <g>
    <path class="cls-3" d="M62.98,45.63V12.1l-19.41,33.53h-10.76L13.6,12.1v33.53H.99V1.6h20.44l16.78,29.3L55.17,1.6h20.48v44.03h-12.67Z"/>
    <path class="cls-3" d="M115.52,1.14l10.69.07c7.83,0,13.19,1.3,16.07,3.89,2.88,2.6,4.32,7.79,4.32,15.58v2.11c0,9.15-1.14,15.28-3.43,18.38-2.29,3.1-8.08,4.65-17.36,4.65l-10.1.2-4.22.07-9.11-.33c-5.11,0-9.04-1.16-11.82-3.47s-4.16-6.04-4.16-11.19l-.13-8.12c0-8.93,1.14-14.78,3.43-17.53,2.29-2.75,7.72-4.13,16.3-4.13l9.51-.2ZM108.26,35.14l7.2.13,6.86-.07c3.78,0,6.5-.41,8.15-1.22,1.65-.82,2.48-2.84,2.48-6.06l.13-5.96c0-2.03-.12-3.76-.36-5.2-.24-1.43-.74-2.49-1.49-3.18-.75-.68-1.86-1.14-3.33-1.36-1.47-.22-3.05-.33-4.72-.33l-13.33.07c-3.04,0-5.35.31-6.93.93s-2.5,1.93-2.74,3.94c-.24,2.01-.36,3.67-.36,5v2.98c0,4.06.47,6.8,1.42,8.21.95,1.41,3.29,2.12,7.03,2.12Z"/>
    <path class="cls-3" d="M305.3,1.6v10.03h-35.71v7.53h33.34v8.71h-33.34v7.79h35.71v9.97h-49.11V1.6h49.11Z"/>
    <path class="cls-3" d="M354.24,45.63l-26.49-33.07v33.07h-12.61V1.6h21.34l26.52,33.01V1.6h12.61v44.03h-21.36Z"/>
    <path class="cls-1" d="M55.94,53.22c7.07,0,12.12,1.02,15.16,3.07,3.03,2.05,4.55,5.67,4.55,10.86,0,1.98-.15,3.68-.44,5.08-.3,1.41-.88,2.63-1.77,3.66-.88,1.03-1.92,1.8-3.09,2.31-1.18.51-3.65,1.22-7.42,2.15,4.12.4,7.16,1.18,9.1,2.34,1.94,1.17,2.92,3.2,2.92,6.11v8.45h-18.21v-4.22c0-2.16-.25-3.87-.75-5.15-.5-1.28-2.84-1.91-7.03-1.91H15.47v11.29H1.06v-44.03h54.88ZM48.43,75.27c4.07,0,6.6-.37,7.6-1.12,1-.75,1.5-2.42,1.5-5.02,0-1.45-.19-2.53-.57-3.23-.38-.7-1.18-1.19-2.39-1.45-1.21-.26-2.2-.42-2.96-.46-.77-.04-1.68-.07-2.74-.07H15.47v11.35h32.97Z"/>
    <path class="cls-3" d="M116.2,52.76l10.69.07c7.83,0,13.19,1.3,16.07,3.89,2.88,2.6,4.32,7.79,4.32,15.58v2.11c0,9.15-1.14,15.28-3.43,18.38-2.29,3.1-8.08,4.65-17.36,4.65l-10.1.2-4.22.07-9.11-.33c-5.11,0-9.04-1.16-11.82-3.47s-4.16-6.04-4.16-11.19l-.13-8.12c0-8.93,1.14-14.78,3.43-17.53,2.29-2.75,7.72-4.13,16.3-4.13l9.51-.2ZM108.94,86.75l7.2.13,6.86-.07c3.78,0,6.5-.41,8.15-1.22,1.65-.82,2.48-2.84,2.48-6.06l.13-5.96c0-2.03-.12-3.76-.36-5.2-.24-1.43-.74-2.49-1.49-3.18-.75-.68-1.86-1.14-3.33-1.36-1.47-.22-3.05-.33-4.72-.33l-13.33.07c-3.04,0-5.35.31-6.93.93s-2.5,1.93-2.74,3.94c-.24,2.01-.36,3.67-.36,5v2.98c0,4.06.47,6.8,1.42,8.21.95,1.41,3.29,2.12,7.03,2.12Z"/>
    <path class="cls-3" d="M307.62,53.22v10.03h-35.71v7.53h33.34v8.71h-33.34v7.79h35.71v9.97h-49.11v-44.03h49.11Z"/>
    <path class="cls-3" d="M363.27,53.22c5.28,0,9.05,1.02,11.32,3.07,2.27,2.05,3.4,5.67,3.4,10.86,0,1.98-.11,3.68-.33,5.08-.22,1.41-.66,2.63-1.32,3.66-.66,1.03-1.43,1.8-2.31,2.31-.88.51-2.73,1.22-5.54,2.15,3.08.4,5.35,1.18,6.8,2.34,1.45,1.17,2.18,3.2,2.18,6.11v8.45h-13.6v-4.22c0-2.16-.19-3.87-.56-5.15-.37-1.28-2.12-1.91-5.25-1.91h-22.38v11.29h-13.4v-44.03h40.99ZM357.66,75.27c3.04,0,4.93-.37,5.68-1.12s1.12-2.42,1.12-5.02c0-1.45-.14-2.53-.43-3.23-.29-.7-.88-1.19-1.78-1.45-.9-.26-1.64-.42-2.21-.46-.57-.04-1.25-.07-2.05-.07h-22.31v11.35h21.98Z"/>
  </g>
  <g>
    <path d="M196.95,43.77c.17-.35.23-.79.17-1.2-.02-1.46.1-2.84.08-4.35-.06-1.31,0-2.49-.1-3.83-.13-1.1-.28-2.92-.08-3.99,0-.37-.06-5.65-.29-5.8.39-1.73-1.27-1.97-2.57-2.08-2.49-.27-4.93.03-7.41.21-1.75-.08-3.51.09-5.25-.13-1.53-.17-3.21.41-5.08-.34-.7-.22-1.17-.8-1.09-1.56,0,0-.19-3.76-.19-3.76-.11-1.27.07-2.52.09-3.79-.24-2.78-.08-6.09-.04-8.83h0c.19-3.9-2.38-3.49-5.31-3.36-1.21-.02-2.38-.11-3.61-.06-1.89-.02-3.75-.01-5.63.17-2.19.31-5.44-.63-7.26.52-.51,1.01-.63,2.08-.54,3.2-.08,2.82.33,6.16.21,9.02.02,1.84,0,3.79-.18,5.62.09,1.33.29,2.65.24,3.97.15,1.56-.2,3.09-.17,4.66.09.95.15,2.9.1,3.86h0c.22,2.52.09,5.36.17,7.95.09,1.29-.16,3.19.63,4.43.24.3.65.47.6.95.24-.16.47-.06.71,0,.89.01,1.78-.16,2.68-.14,2.33-.07,4.73.27,7.05.02,2.64.08,5.25-.22,7.87-.26,4.2.25,8.93.21,13.15.19,2.9.06,6.22-.02,9.1-.05.8.11,1.4-.25,1.74-.9"/>
    <text class="cls-2" transform="translate(154 7.1)"><tspan x="0" y="0">^</tspan></text>
  </g>
  <g>
    <path d="M246.51,43.77c.17-.35.23-.79.17-1.2-.02-1.46.1-2.84.08-4.35-.06-1.31,0-2.49-.1-3.83-.13-1.1-.28-2.92-.08-3.99,0-.37-.06-5.65-.29-5.8.39-1.73-1.27-1.97-2.57-2.08-2.49-.27-4.93.03-7.41.21-1.75-.08-3.51.09-5.25-.13-1.53-.17-3.21.41-5.08-.34-.7-.22-1.17-.8-1.09-1.56,0,0-.19-3.76-.19-3.76-.11-1.27.07-2.52.09-3.79-.24-2.78-.08-6.09-.04-8.83h0c.19-3.9-2.38-3.49-5.31-3.36-1.21-.02-2.38-.11-3.61-.06-1.89-.02-3.75-.01-5.63.17-2.19.31-5.44-.63-7.26.52-.51,1.01-.63,2.08-.54,3.2-.08,2.82.33,6.16.21,9.02.02,1.84,0,3.79-.18,5.62.09,1.33.29,2.65.24,3.97.15,1.56-.2,3.09-.17,4.66.09.95.15,2.9.1,3.86h0c.22,2.52.09,5.36.17,7.95.09,1.29-.16,3.19.63,4.43.24.3.65.47.6.95.24-.16.47-.06.71,0,.89.01,1.78-.16,2.68-.14,2.33-.07,4.73.27,7.05.02,2.64.08,5.25-.22,7.87-.26,4.2.25,8.93.21,13.15.19,2.9.06,6.22-.02,9.1-.05.8.11,1.4-.25,1.74-.9"/>
    <path d="M246.41,38.2c.03-.66-.32-1.34-.15-2.03.47-1.89-.26-3.68,0-5.27.21-1.36.06-4.52-.13-5.88-.04.1-.07.34-.24.21.06-.69.36-1.12,0-1.57-.2-.25-.59-.29-.9-.32-.03,0-.09-.13-.05-.14l.45-.09c-2.6-.72-5.4-.47-8.06-.2-2.06.09-4.16.11-6.2-.09-.87-.15-1.77,0-2.64.08-1.06.09-3.7-.38-3.77-1.58l-.17-2.87c-.27-2.41.11-4.78-.1-7.2-.16-1.61.09-6.11.08-7.78-.09.01-.24.05-.23,0,.38-1.08-.53-2.19-1.63-2.31-.76-.25-2.49,0-3.29.01-1.2.07-2.35-.14-3.56-.09-2.42-.1-4.79.21-7.2.23-.98.18-4.33-.5-5.08.35-1,.16-.96,2.19-.91,3.19-.04.85-.02,1.64.02,2.49.21,3.84.3,8.18.04,12.01-.03.63.07,1.31.16,1.92.08,1.02.04,2.39.13,3.42,0,0-.25,2.63-.25,2.63-.1,1.01.21,1.99.09,3.45-.06.74.06,1.55.14,2.31.08,2.09-.04,4.61.04,6.72.14,1.55-.32,3.77,1.09,4.85.08.07.3-.14.41-.2l-.04.3c.4.33,2.41.1,2.9.1,2.1-.23,4.15.26,6.24.12,2.31-.17,6.01-.11,8.36-.31,2.8.15,6.03.17,8.84.2,4.43-.05,9.31.08,13.75-.1,2.33-.29,1.85-2.5,1.79-4.19-.03-.81.01-1.56.05-2.38Z"/>
  </g>
  <g>
    <path d="M196.91,95.4c.17-.35.23-.79.17-1.2-.02-1.46.1-2.84.08-4.35-.06-1.31,0-2.49-.1-3.83-.13-1.1-.28-2.92-.08-3.99,0-.37-.06-5.65-.29-5.8.39-1.73-1.27-1.97-2.57-2.08-2.49-.27-4.93.03-7.41.21-1.75-.08-3.51.09-5.25-.13-1.53-.17-3.21.41-5.08-.34-.7-.22-1.17-.8-1.09-1.56,0,0-.19-3.76-.19-3.76-.11-1.27.07-2.52.09-3.79-.24-2.78-.08-6.09-.04-8.83h0c.19-3.9-2.38-3.49-5.31-3.36-1.21-.02-2.38-.11-3.61-.06-1.89-.02-3.75-.01-5.63.17-2.19.31-5.44-.63-7.26.52-.51,1.01-.63,2.08-.54,3.2-.08,2.82.33,6.16.21,9.02.02,1.84,0,3.79-.18,5.62.09,1.33.29,2.65.24,3.97.15,1.56-.2,3.09-.17,4.66.09.95.15,2.9.1,3.86h0c.22,2.52.09,5.36.17,7.95.09,1.29-.16,3.19.63,4.43.24.3.65.47.6.95.24-.16.47-.06.71,0,.89.01,1.78-.16,2.68-.14,2.33-.07,4.73.27,7.05.02,2.64.08,5.25-.22,7.87-.26,4.2.25,8.93.21,13.15.19,2.9.06,6.22-.02,9.1-.05.8.11,1.4-.25,1.74-.9"/>
    <text class="cls-2" transform="translate(153.96 58.74)"><tspan x="0" y="0">^</tspan></text>
  </g>
  <path d="M246.3,95.4c.17-.35.23-.79.17-1.2-.02-1.46.1-2.84.08-4.35-.06-1.31,0-2.49-.1-3.83-.13-1.1-.28-2.92-.08-3.99,0-.37-.06-5.65-.29-5.8.39-1.73-1.27-1.97-2.57-2.08-2.49-.27-4.93.03-7.41.21-1.75-.08-3.51.09-5.25-.13-1.53-.17-3.21.41-5.08-.34-.7-.22-1.17-.8-1.09-1.56,0,0-.19-3.76-.19-3.76-.11-1.27.07-2.52.09-3.79-.24-2.78-.08-6.09-.04-8.83h0c.19-3.9-2.38-3.49-5.31-3.36-1.21-.02-2.38-.11-3.61-.06-1.89-.02-3.75-.01-5.63.17-2.19.31-5.44-.63-7.26.52-.51,1.01-.63,2.08-.54,3.2-.08,2.82.33,6.16.21,9.02.02,1.84,0,3.79-.18,5.62.09,1.33.29,2.65.24,3.97.15,1.56-.2,3.09-.17,4.66.09.95.15,2.9.1,3.86h0c.22,2.52.09,5.36.17,7.95.09,1.29-.16,3.19.63,4.43.24.3.65.47.6.95.24-.16.47-.06.71,0,.89.01,1.78-.16,2.68-.14,2.33-.07,4.73.27,7.05.02,2.64.08,5.25-.22,7.87-.26,4.2.25,8.93.21,13.15.19,2.9.06,6.22-.02,9.1-.05.8.11,1.4-.25,1.74-.9"/>
</svg>