<?xml version="1.0" encoding="UTF-8"?>
<svg id="Ebene_1" data-name="Ebene 1" xmlns="http://www.w3.org/2000/svg" viewBox="0 0 375.73 241.27">
  <defs>
    <style>
      .cls-1, .cls-2 {
        fill: none;
      }

      .cls-3 {
        fill: #1d1d1b;
      }

      .cls-4, .cls-5 {
        fill: #fff;
      }

      .cls-4, .cls-5, .cls-6, .cls-7, .cls-8, .cls-2 {
        stroke: #1d1d1b;
        stroke-linecap: round;
        stroke-linejoin: round;
      }

      .cls-4, .cls-7 {
        stroke-width: .7px;
      }

      .cls-5, .cls-8, .cls-2 {
        stroke-width: .76px;
      }

      .cls-6 {
        stroke-width: .83px;
      }
    </style>
  </defs>
  <g>
    <path class="cls-8" d="M193.7,169.32c-2.69.5-5.28.81-7.94,1.39-1.46.31-2.88.71-4.35.91-3.32.44-6.47,1.08-9.76,1.75l-7.3,1.5-4.26,1.18-5.99,1.55-4.3.73c-1.48.25-2.95.59-4.4.98-2.8.75-5.53.97-8.38,1.52l-4.49.86-2.44.65c-2.88.77-5.85.74-8.78,1.48-4.95,1.24-6.54-.05-9.49,1.07-.83.31-1.67.47-2.53.61.09.26.15.53.16.8.93-.15,1.85-.33,2.76-.71.96-.41,2.02-.4,3.05-.35,4.43.21,6.85-1.14,11.16-1.61,4.28-.47,7.48-1.61,12.2-2.22,5.04-.65,4.92-1.08,9.18-1.89l3.64-.69c4.48-.85,8.71-2.35,13.16-3.24l7.12-1.44c3.28-.66,6.47-1.12,9.75-1.78l5.28-1.05c1.37-.27,2.66-.59,4.06-.78,1.42-.19,2.79-.45,4.17-.72-.12-.21-.16-.47-.13-.71l-1.12.21Z"/>
    <path class="cls-8" d="M69.5,170.66c-.68-1.01-1.57-2.05-2.44-2.89l-3.03-2.97c-1.21-1.18-2.49-2.52-3.91-3.45-1.3-.86-2.35-1.55-3.39-2.75l-2.16-2.5c.05.33.08.67.07,1.03,0,.08-.02.16-.03.23l1.4,1.67c1.15,1.38,2.39,2.14,3.82,3.1,2.11,1.41,4.76,4.6,6.86,6.39,1.43,1.22,3.06,4.17,5.19,6.15.69.64,1.24,1.17,1.7,1.61.12-.27.27-.51.47-.73-.09-.08-.17-.16-.26-.25-1.61-1.47-3.05-2.79-4.3-4.63Z"/>
    <path class="cls-8" d="M209.25,124.52c.16-2.07.36-4.03.4-6.11l.06-3.48c.04-2.4.14-4.61.26-6.92.24-4.68.36-4.44-.14-9.23-.32-3.08,0-6.07.1-9.17l.13-4.06.07-4.84c.02-1.23.04-2.43-.06-3.68l-.61-7.49c-1.69-.69-1.37-2.08-4.42-2.56-.81-.12-1.29-.59-1.92-.99-1.9-1.21-3.72-2.59-5.7-3.64-1.48-.79-2.71-1.67-4.19-2.36l-4.82-2.24c-1.7-.79-3.1-2.05-4.7-3.09l-2.92-1.89-3.76-1.9c-2.55-1.29-7-3.27-9.16-4.97-.61-.48-1.82-.6-2.58-1.03-.51-.29-1.71-.3-2.26-.07-1.94.81-3.93.34-5.89.71-.69.13-1.41.53-2.25.67l-12.14,1.99c-3.67.6-7.12,1.32-10.74,2.07-2.05.42-7.13.27-10.52.86l-7.7,1.33-4.54.4c-4.31.38-7.16-.17-11.55.68l-4.22.82c-2.17.42-4.26,1.31-6.49,1.41-2.42.11-4.65.4-7.03.68l-6.21.73-6.13.1c-1.61.03-3.04.26-4.65.28-1.18.02-2.43.38-3.64.49l-3.23.29-3.57.47c-.98.13-2.18.83-2.43,1.87-.3,1.22-.63,2.48-.56,3.72l.3,4.85-.28,5.57c-.1,2.02.1,3.92.12,5.95l.02,3.9c0,1.39.2,2.67.15,4.06l-.32,8.08c-.06,1.42.23,2.72.01,4.14-.92,5.95.18,8.59.15,14.49l-.04,9.17-.06,3.56.09,6.59.04,4.76-.03,1.4c.22,1.53.25,3.09.05,4.63.18.9.41,1.79.69,2.67l-.03-.6v-3.81s.09-4.72.09-4.72l-.11-11.27.03-3.71-.08-3.79.08-4.3c.05-2.7-.12-5.28-.37-7.95-.4-4.47.49-7.61.31-9.42-.18-1.84-.09-3.5.03-5.34l.22-3.45c.07-1.19-.16-2.36-.17-3.54l-.03-3.92-.03-3.27c-.03-2.52-.13-5,.03-7.51.11-1.79.33-3.43-.02-5.21-.3-1.52-.04-2.96.16-4.46.16-1.17.55-2.14,1.85-2.36l3.85-.65c.11.78-.41,1.67.01,2.36.9,1.49,2.04,2.97,3.41,4.07l3.88,3.11c1.45,1.16,2.85,2.32,4.36,3.35.97.66,1.72,1.4,2.64,2.12l4.45,3.51,7.16,4.99c.62.43,1.26.73,1.15,1.63.53-.34,1.02-.29,1.36.22.48.2,1,.34,1.55.41l5.7,2.15c-2.27,1-4.86,1.15-7,.19-2.23-1.01-3.8-2.77-5.6-4.27-2.23-1.86-4.53-3.46-6.86-5.15-1.45-1.04-2.91-1.92-4.28-3.04-1.7-1.39-3.14-3-4.98-4.19-1.31-.85-2.3-1.88-3.46-2.91l-3.56-3.16c-.63-.55-3.23-2.82-3.72-2.92-.1-.02-.22.17-.25.27-.02.1.08.37.17.45l2.2,1.94c.93.82,1.77,1.52,2.7,2.33l3.81,3.33c1.75,1.53,3.65,2.75,5.33,4.39,1.05,1.02,2.19,1.77,3.36,2.59l2.63,1.84,5.35,3.95c.98.72,1.73,1.46,2.59,2.32.85.85,1.98,1.52,2.97,2.23,2.95,2.1,3.95.34,5.25,1.96.75-.59,1.66-.77,2.49-1.11.94-.38,1.67-.42,2.68-.42,1.79.01,3.54-.65,5.33-.76l5.81-.35,5.25-.81c2.11-.32,4.14-.5,6.28-.44,1.47.04,2.82-.61,4.24-.83l3.52-.56,3.77-.46,7.41-1.43c1.65-.32,7.27-.6,10.16-1.37,1.55-.42,3.03-.55,4.61-.71l7.24-.74,7.65-1.11,7.83-1.44,4.98-.59,4.77-.66c.5-.07.94.03,1.3.46.37-.6,1.04-.72,1.77-.85l8.26-1.49,4.56-.64c2.17-.31,8.53-1.39,10.2-2.69.87,6.33.88,12.52.63,18.79l-.28,7.08.46,7.68-.19,4.8-.27,4.65c-.17,3.01.11,5.96-.17,8.96l-.68,7.3c-.18,1.94-.21,3.41.32,5.28.82,2.88.67,5.99.72,8.94,0,.12,0,.25,0,.37.19-.03.39-.02.58.03.06-1.63.02-3.27-.06-4.92-.28-5.83-1.3-4.32-.91-9.36l.39-5.03ZM180.61,53.51c.43.2.85.75,1.27.98.76.42,1.4.82,2.13,1.27.8.5,3.17,1.79,3.33,2.46.02.08-.28.04-.39-.03l-2.64-1.61c-1.62-.99-3.09-1.98-4.82-2.74-.68-.3-1.26-.72-1.65-1.46,1.01.38,1.84.7,2.76,1.13ZM81.65,73.77l-2.38.76c-1.35.43-3.39.45-3.79-1.04-.1-.39-.14-1.4.43-1.41,1.09-.03,2.1-.02,3.17-.25,1.26-.27,3.31,0,3.22,1.24-.02.27-.36.61-.66.7ZM82.74,74.42c.03.12-.14.34-.35.43-1.21.5-.45,1.05-2.77.23.49-.19,2.97-1.37,3.12-.66ZM79.6,75.09c-.51,1.48-3.36.58-2.08.36l2.08-.36ZM82.9,82.03l-1.27-.97-5.81-3.8c-.2-.13-.36-.6-.34-.81.02-.24.35-.63.64-.64.48-.03,1.37,1.2,2.66.49,1.01-.56,1.7-.18,2.68-.14.46.02,1.04-1.24,1.77-.42-1.08,1.25.46,2.5.21,2.85-.39.53-.66.38-.94.93-.33.65,1.38,1.05.39,2.52ZM93.17,86.57c1.06-.3,2.05-.46,3.17-.28-1.04.54-2.12.42-3.17.28ZM114.8,84.27c1.84-.87,3.77-1.11,5.84-1-1.75.92-3.81,1.18-5.84,1ZM141.61,80.26c-1.23.08-2.32.72-3.65.42,2.21-.81,4.52-1.32,6.94-1.04-1.02.35-2.15.55-3.29.62ZM163.42,77.14c.8-.43,1.66-.54,2.68-.3-.83.3-1.72.46-2.68.3ZM183.91,73.16c-.63-.22-.52-1.44-.2-1.82l2.53,1.35c-.7.36-1.67.71-2.34.47ZM196.56,71.1c-2.46.31-4.86.74-7.28,1.2-.87.17-1.39.16-2.19-.25-2.49-1.28-3.47-1.05-4.42-3.75-.09-.26.26-.93,0-1.15-.59-.5-1.24-1.13-1.93-1.4-2.21-.85-4.47-.32-6.36.93-.4.27-.94.6-.8,1.09.08.29.22.66.18.87-.05.3-.34.62-.68.72l-.47-4.96,1.29.15c-.02-.36-.06-.77-.18-1.07l-1.14-2.95c-.42-1.08-3.92-2.28-6.65-.49-.49.32-1.47.41-1.65,1.09-.14.53-.74,4.41.32,4.02,1.12-.41,2.07.11,3.11.03,1.23-.1,4.26-1.19,4.43.66.08.91.88,8.17,1.3,8.28.71.19-.07-1.9-.06-3.3,0-.27.79-.1.97.06.77.67.41,1.58.87,2.72.06.15.37-.34.35-.5l-.18-1.82c1.03.4,1.78.24,2.76.11.74-.1,1.54.21,2.31-.02.56-.17,1.49-.8,2.06-.31.56.48.42,1.67.29,2.41l-9.52,1.5c-2.35.37-4.56.84-6.95.88-.95.01-.7-5.82-.57-6.72.57-3.82-.73-3.85-.7-3.1l.15,3.85c.08,2.02-.04,3.81.19,5.85-.49.28-1.07.43-1.71.57.16-2.03-1.33-1.49-.1-3.12l-.92-.34c-.32-.12.27-1.04-1.53-2.92-1.22-1.28-2.96-.76-4.45-1-1.49-.24-2.77-.64-4.05.56-1.5,1.39-.09,1.58.2,3.65,2.32-.58,1.48.08,2.98.59.3.1.81-.45,1.15-.46,3.52-.13,3.65,1.37,5.37.05.06,1.21.52,2.03,1.33,2.78-3.97,1.53-19.08,2.42-20.99,2.8l-9.07,1.79c-2.45.48-4.78.81-7.22,1.42-2.04.51-4.12.21-6.27.31-.02-1.52-.2-2.82-.08-4.22l.44-5.05c.08-.93.08-1.53.97-2.2l-.84.06c-.11-.59-.21-1.12-.42-1.64-1.12.51.16,1.94-.3,5.08-.39,2.65-.35,5.19-.33,7.87,0,.38-1.09.28-1.52.37-3.37.69-7.52,1.5-11.13,1.76-.5.04-.5-1.33-.34-1.41,1.12.92-.13-3.35-.77-3.31-.63.04.4,3.75.16,4.8-3.46.66-6.82.78-10.28.95-1.49.07-2.98.84-4.42.38l-3.49-1.11.23-.95c-.99.32-1.69-.05-2.55-.37-.8-.29-1.63-.45-2.2-1.13.76-.57,1.58-.74,2.53-.75,1.7-.03,3.59-.44,5-.83.27-.08.48.67.34.83-.5.59-1.33,1.03-2.1,1.13-.4.05-.8-.58-1.2-.67-1.01-.22-2.13-.08-3.2.09.34.39.95.36,1.36.27,2.1-.47,2.05,2.03,4.94.18.36-.23.83-.36,1.2-.54.19-.84-.3-1.53-.48-2.25-.7-2.86-2.1-.82-1.96-3.77.09-2.02-.49-4.06.04-6.05-.01.04,1.05-1.75.16-2.7-.08-.08-.25-.1-.36-.07-.11.03-.29.38-.24.54.4,1.34-2.55,2.94-2.56,2.95-.43,1.08-.65,3.25-.98,4.49-.2.74.66,1.76.27,2.41-.24.4-1.08.9-1.51.77-.98-.3-1.25-1.48-1.02-2.35.13-.48.13-1.02-.03-1.43-1.05-2.69-.37-2.61-1.98-3.21l-1.93-.71c-1.16-.43-2.63.42-4.03.66l.05-1.57h-.56c-.11,0-.34-.18-.28-.27.39-.56,1.25-.43,1.51-1.1.17-.42.2-1.07.01-1.48l-.98-2.19c-.28-.62-1.37-1.3-1.96-1.63-.8-.44-1.7-.07-2.56-.05-1.65.04-3.54.62-4.33,2.16-.39.75.03,1.84-.5,2.56.39.08.86.15,1,.35.16.23.22.68.3,1.1.35-.01.98-.15,1.4-.05.27.07.53.74.79.84.59.24.98-.59,1.42-.76.89-.33,1.96-.21,2.93-.24l1.25,2.37c-1.83,2.29,1.44,2.61-.46,4.79-.78-.56-1.38-1.25-2.14-1.72-1.07-.67-1.86-1.55-2.84-2.3l-4.89-3.75-2.13-1.67c-1.28-1-7.05-5.51-5.52-7.19.92-1.01,2.25-.51,3.34-.76,1.19-.27,2.14-.91,3.49-.62,1.27.27,2.62-.26,3.94-.26h5.15s3.35-.32,3.35-.32l3.46-.42c1.25-.15,2.48-.58,3.75-.56,2.35.05,4.52-.12,6.78-.79,2.53-.75,8.14-1.95,10.72-2.01,4.65-.11,9.24-.07,13.86-.84,3.87-.64,7.53-1.49,11.47-1.61,2.09-.07,4.15.02,6.19-.46,3.44-.8,6.75-1.52,10.25-2.01,2.43-.34,4.76-.61,7.16-1.1,2.34-.48,4.6-.82,6.94-1.17,1.93-.29,3.62-.42,5.58-.22,2.03.21,4.19.13,6.07,1.2-.22-.13,6.8,4.16,6.02,3.56l4.02,3.09c-.11-.08,12.22,6.97,13.18,7.51,2.15,1.22,4.43,3.53,5.96,4.19.9.39,1.69,1.03,2.66,1.36.44.15.62.86.89,1.05.23.16.7-.37,1.01-.04.27.29.56.65.54.96-.03.48-.42.78-.84.91-1.84.55-3.6.7-5.49.93ZM179.81,69.45c.82-.12,1.5-.55,2.45-.83.19.25.23,1.38-.17,1.53-2.03.79-2.68.5-5.19.64-.09,0-3.53-.31-2.89-1.42.44-.76,2.33.58,5.79.08ZM174.71,67.64c.41-1.24,2.17-1.18,3.17-1.32,1.67-.25,3.09-.12,4.21,1.42-1.62,1.26-3.62,1.25-5.57.99-.58-.08-2.06-.32-1.81-1.09ZM171.13,63.12c.49-.04.88-.45,1.4-.74.2.09.65.88.43,1.11-.39.43-1.27.8-1.83.71-1.24-.18-2.24.23-3.41.31-.93.06-1.86-.35-2.89-.12-.37.08-.47-1.3-.09-1.28,2.08.09,4.3.19,6.38,0ZM165.02,61.67c-.04-.48.45-.69.9-.93,1.21-.65,2.22-1.06,3.61-.81.89.17,1.86.16,2.57,1.05.17.21.11.78-.06.94-.2.2-.68.5-1.01.51l-4.93.11c-.61.01-1.02-.22-1.08-.87ZM159.81,72.23c.62.04,1.12-.28,1.74-.5.31-.11.37.9.15,1.15-.35.4-.74.38-1.3.25l-1.96-.47c.45-.38.89-.46,1.38-.42ZM154.01,71.75l-.38-1.5c-.04-.17-.06-.5.05-.61.12-.12.41-.24.56-.2.15.03.34.53.53.52.98-.09,2.61-.42,3.75-.37.74.03,2.74.72,2.37,1.57-.34.77-5.75.8-6.87.6ZM87.52,79.02l-.02-.91c1.09-.24,3.39.12,3.43,1.45.04,1.21-4.95,1.56-6.01,1.62-.64.03-1.8-.91-1.33-1.53.88-1.17,2.61-1,3.93-.62ZM86.57,77.42l.69-5.01c.43-.92.61-1.9,1.73-2.69l.3,7.42c-.85.44-1.78.51-2.71.28ZM71.38,67.22c-1.5.25-4.09-.18-4.32-1.35-.33-1.73,2.99-2.09,3.47-2.2,1.39-.34,2.55-.4,3.55.81.19.23.75.45.84.69.53,1.54-2.53,1.88-3.53,2.05ZM73.58,68.23c-2.18.27-2.61-.31-3.73,1.15-.71-1.74-1.83-.76-2.05-1.38-.31-.9,1.21.29,3.31-.08l2.69-.46c.23-.04,0,.74-.22.76ZM75.12,66.67c.58-.18.71.63.72,1.02,0,.46-.46.92-1.04.67-.58-.26-.38-1.47.32-1.68ZM206.75,68.85c-.24.72-1.16.36-1.85.69l1.18.8c-1.55.46-3,.78-4.52,1.07-.69-.71,1.59-.08,2.02-1.73.15-.59-.16-1.41-.85-1.84-1.64-1.04-3.39-1.92-5.14-2.86-.73-.39-1.23-.93-1.89-1.41l-3.42-2.51-3.84-2.11c.8-.02,1.49.6,2.23.79,1.42.36,2.38,1.14,3.58,1.83,1.81,1.04,3.59,1.92,5.35,3.05l2.81,1.8c.99.64,1.76,1.31,3.04,1.41.44.04,1.44.6,1.29,1.03Z"/>
    <path class="cls-2" d="M88.02,132.25c-.1.66,1.67.14.46-8.06-.38-2.61.1-4.9.84-7.29.45-1.44-.3-3.08-.46-4.48-1.16-.1.45,2.94-.12,4.62-2.19,6.47.31,8.11-.71,15.2Z"/>
    <path class="cls-2" d="M75.05,126.71l.91-.35.35.9c.03.09.35,0,.38-.09.03-.1.07-.39.04-.5-.25-1.08-.14-1.91-.13-2.91l.07-5.64c.03-2.72.21-5.3.18-8.03l-.1-8.21c-.03-2.28-.17-4.7-.95-6.85-.7-1.92-2.43-3.25-3.61-4.83-1.01-1.35-2.14-2.29-3.37-3.39-.98-.88-1.61-2.05-2.77-2.75-.87-.52-1.67-1.14-2.4-1.87l1.02-1.1c.06-.06-.21-.26-.28-.21-.77.53-1.34,1.23-2.45.86-1.23-.4-2.4.09-3.01,1.32-.7,1.42-.82,5.85-.3,7.51.3.97.08,2.05.22,3.05.16,1.13.12,2.14.15,3.27l.12,4.98c.06,2.57.22,4.97-.47,7.48-.1.35.11.99.33,1.25.21.24.75.49,1.11.33.25-.11.41-.71.62-.87,1.2-.98,2.4-2.09,3.9-2.63,1.68-.6,3.53.37,4.65,1.61.59.65,1.17,1.19,1.68,1.86,1.26,1.64,1.83,3.61,2.23,5.64l1.39,7.1c.2,1.02.18,2.02.5,3.05Z"/>
    <path class="cls-2" d="M85.25,104.19l.38,5.52c.06.86-.1,1.65.03,2.45.23,1.32-.23,2.48-.28,3.77l-.31,7.52c-.11,2.67.25,5.27.41,8.01.74-.92.36-1.95.34-2.92-.05-1.86-.31-3.69-.22-5.56.13-2.63.06-5.19.35-7.77.15-1.31.34-2.43.24-3.75-.03-.43-.21-8.21-.76-7.64-.05.05-.19.25-.18.38Z"/>
    <path class="cls-2" d="M85.46,95.71c-.3-1.87-.49-3.63-.44-5.59,0-.08-.11-.37-.17-.33l-.2.12c-.48.3.23,6.08.5,7.01.44-.31.37-.79.31-1.22Z"/>
    <path class="cls-2" d="M88.75,105.3c-.19-1.99.39-5.17.91-7.27.24-.98.06-2.13.04-3.18-.99.63-.05,1.34-.92,4.62-.29,1.1-.3,2.27-.52,3.42-.5,2.71.56,3.23.48,2.41Z"/>
    <path class="cls-2" d="M88.04,138c-1.18.76-.05,3.18.49,4.07.75-.57-.6-1.87-.49-4.07Z"/>
    <path class="cls-2" d="M85.56,134.05c0-.07-.14-.09-.2-.06-.34.19-.6,3.56-.6,4.11l.04,3.42c.33-.31.52-.81.49-1.29-.14-2.53.34-5.44.27-6.18Z"/>
    <path class="cls-2" d="M85.68,164.6c-.17-1.04.01-1.97.14-2.98.32-2.53-.31-5.05-.29-7.57.02-1.55.14-2.83.02-4.53l-.29-4.07c0-.1-.32-.18-.33-.1-.01.07-.07.28-.06.37l.29,6.75c.06,1.4-.27,2.61-.03,4,.42,2.35.39,4.69-.02,7.04.17,1.63.23,3.23.2,4.83.15-.01.31,0,.46.01.04-1.27.12-2.49-.09-3.75Z"/>
    <path class="cls-2" d="M88.29,145.48c-.84.98-.53,2.2-.24,3.22.31-.22.36-.59.34-1.03l-.1-2.2Z"/>
    <path class="cls-2" d="M87.95,158.91c.6-.47.38-1.09.25-1.75-.16-.84.13-1.61-.15-2.42-.82,1.34-.32,2.82-.11,4.17Z"/>
    <path class="cls-2" d="M87.49,168.08c.19-.05.37-.08.56-.09l-.02-1.71.02-2.58c-.23-.01-.48.44-.49.77l-.07,3.62Z"/>
    <path class="cls-2" d="M129.32,112.82c-.09.83,2.56,1.65,4.39,3.69.13.15.38.4.54.41.13,0,.39-.09.51-.14l.27.82c.52-1.4.6-2.71,1.57-3.77l2.84-3.13c.34-.38.92-.42,1.31-.12,1.8,1.41,2.67.59,5.04,1.35,1.61.52,3.39-.14,4.3-1.71-1.25.08-1.69,1.72-3.96,1.03-2.56-.77-3.22.1-5.19-1.43-.54-.42-1.29-.41-1.7.15-2.28,3.11-3.17,2.88-4.36,6.84-.39-.63-5.42-5.11-5.55-4Z"/>
    <path class="cls-2" d="M154.5,112.61c.34-.82-1.48-.9-1.92-3.11-1.67.54,1.17,2.98,1.92,3.11Z"/>
    <path class="cls-2" d="M150.78,100.42c-.43-.5-.4-5.79-.85-5.05-.45.74.49,6.86.91,8.15.55-1.36-.87-2.62.97-3.19.21-.06.6-.34.67-.54.09-.23,0-.56-.18-.93l-1.52,1.55Z"/>
    <path class="cls-2" d="M128.39,105.17c.75-.54.51-1.52,1.14-2.04.25-.21.72-.32.74-.58.03-.31-.08-.92-.33-1.05-.93,1.1-1.54,2.33-1.56,3.67Z"/>
    <path class="cls-2" d="M124.76,113.29l2.92-.47c.12-.02.36-.13.46-.18.1-.05.07-.49-.05-.48-3.96.24-4.33,1.3-3.34,1.14Z"/>
    <path class="cls-2" d="M177.19,107.98c.2-3.7.3-7.26-.19-10.94-.12-.91.15-1.88-.21-2.74-1.5-3.56-1.35-2.1-2.91-2.66-2.12-.76-4.16-1.5-6.42-1.67-2.69-.21-5.28,1.07-7.66,1.07-1.1,0-1.95.22-3.02.44l-3.58.73-4.32.95c-1.6.35-3.28.27-4.93.51-2.61.37-5.11.37-7.72.29-1.39-.04-2.63.58-3.97.85-3.21.64-3.35-.43-6.11,2.23-1.27,1.23-2.69,1.77-4.75,3.91-.93.97-.05,5.06-.57,8.16-.21,1.25.07,2.36.23,3.57.23,1.71.42,3.38.76,5.09.24,1.2-.12,2.3-.14,3.53,0,.41-.24,10,.65,8.58.05-.08.13-.35.12-.46-.35-1.98-.27-4.25-.22-6.28.03-1.04-.07-1.97.1-2.97.43-2.5-1.05-8.22-.96-9.89l.22-4.44c.07-1.48-.14-2.91-.03-4.4,2.13-2.07,3.71-2.69,5.69-4.66,1.49-1.48,3-.88,4.87-1.27,1.1-.23,2.11-.81,3.23-.81l4.91-.02c2.97-.01,5.85-.47,8.79-.85,1.11-.15,2.11-.78,3.27-.65.02,1.56-.98,5.32,1.18,5.39,1.42.05,2.77.02,4.21-.02,2.16-.05,3.58-1.79,3.09-1.9-.5-.12-.92.83-1.89,1.02-1.6.32-3.13.21-4.72.17-.83-.02-1.5-.4-1.5-1.34v-2.32c0-.81.5-1.33,1.35-1.49l4.05-.74c2.23-.4,4.36-.47,6.58-1.03,2.18-.56,4.37.07,6.51.62.36.09,1.26.25,1.27.61.01.84.24,1.5.36,2.27l.96,5.97c.19,1.19.06,2.32.39,3.58.45-.67.34-1.38.24-2.18l-1.12-9.23c-.05-.41,1.21-.17,1.53,0,.3.16.38.85.62,1.1.97,1.03.87,1.95.94,3.25.19,3.44.53,6.82.14,10.28-.04.36-.16.66-.35,1.05-1.05-.56-1.24-1.55-1.97-1.73-.07-.02-.17.13-.15.2.36,1.48,1.91,1.78,2.1,2.45.68,2.35.35,8.46.38,11.12.01,1.34-.85,2.16-2.23,2.29-1.38.13-3.25,1.2-4.6.47-1-.53-1.65-2.17-2.57-2.74-.3-.19-.09-1.13-.12-1.37-1.98.66-1.56-2.15-5.8-3.14-.67-.16-1.9-.79-1.88-1.59.06-2.01,1.19-3.67,2.16-5.31,1.03-1.73,1.87-.52,1.83-1.14l-.03-.46c0-.05-2.14-.62-3.52,1.58-.25.39-.71.99-.62,1.44.15.75,1.34-2.13,2.04-1.95l-1.6,2.91c-.11.2-.6.17-.8.11l-.15,2.74c-2.41-.79-4.75-.93-7.25-1.04-1.53-.06-3.02.44-4.53.74-1.91.38-3.52,1.22-5.13,2.3-2.5,1.67-4.02,2.15-5.96,4.92l-1.67,2.39c-1.23,1.75-1.64,3.94-2.97,5.63-1.22,1.55-7.46.79-8.33,1.37-.12.08-.08.59.09.59l3.3-.1c1.97-.06,3.83-.26,5.56-1.17l1.8-4.01c1.02-2.27,2.6-4.26,4.33-6.09,1.06-1.11,5.87-4.13,7.43-4.63,1.8-.57,3.69-1.12,5.6-1.21.84-.04,1.71.08,2.57.1,1.62.03,3.26.37,4.8.84.54.17.49,1.09.6,1.47l.09.33s.18.04.19,0l.03-.23c.02-.17.25-.68.39-.58l.49.34c.9.62,2.31.51,3.17,1.33,1.89,1.81,3.68,3.68,5.47,5.61.24.25.36.94.67,1.02.59.16,3.63-.44,4.63-.68.99-.24,2.36-.32,2.84-1.4.66-1.48.4-3.18.46-4.78.14-3.68-.3-5.26-.09-9.19Z"/>
    <path class="cls-2" d="M161.53,99.88c-.09.5.34,1.02.75,1.23,2.15,1.08.34,4.77,1.53,5.09l2.21.6c2.71.73,4.35.41,6.15-1.3.06-.06-.1-.41-.14-.35-.03.04-.25.1-.3.15-1.43,1.45-4.7,1.62-6.79.15-.21-.15-.79-.28-.87-.51-.1-.27-.09-.7-.09-1.03l-.13-5.38c-.05-2.08-.18-4.33.18-6.29.02-.13-.09-.36-.15-.42-.65-.67-.64,5.27-.59,5.97.08,1.17.16,2.27-.04,3.45-.73-.56-.98-1.12-1.71-1.35Z"/>
    <path class="cls-2" d="M126.74,99.55c-1.04-.07-.35,3.48-.12,4.26.6,2.04,1.14,4.47,1.49,6.43.03.14.19.39.23.46,1.2,1.69-1.37-7.86-1.39-7.92-.29-1.04-.21-1.7.21-2.56.09-.19-.22-.65-.42-.66Z"/>
    <path class="cls-2" d="M140.31,95.68c-.04-.16-.44.22-.44.37-.12,2.65-.04,5.19.04,7.85.05,1.66-.27,3.28.22,4.97.47-.75.23-1.59.26-2.37.1-2.38,0-4.63-.1-7.09-.05-1.26.31-2.57.02-3.72Z"/>
    <path class="cls-2" d="M130.78,96.53c-.34.37-.46.95-.42,1.44l.26,2.82c.88.56,1.9.65,2.89.85,1.78.36,3.42.33,5.06-.48l.54-.27c.1-.05.09-.45-.05-.44-1.2.11-2.48,1.62-6.79.18-.52-.17-1-.65-1.5-.63.18-1.17.23-2.29,0-3.48Z"/>
    <path class="cls-2" d="M161.61,94.09c-.32-.02-.13,2.92.38,3.3.07.05.25-.29.24-.38l-.33-2.68c0-.07-.22-.23-.29-.24Z"/>
    <path class="cls-2" d="M110.02,185.36c28.66-3.48,56.66-11.48,84.8-16.25"/>
    <path class="cls-2" d="M55.21,157.42c7.46,5.46,12.46,11.46,18.15,17.48"/>
    <path class="cls-2" d="M209.25,143.81c-3.58-24.93,3.42-48.93-.56-73.86-5.32,3.52,1.66,12.14,0,0-1.02.93-2.02,1.93-3.02,1.93-35,6-67,9-101,15h-14c-1,0-1,1-2,2-.85-1.78,2.85-2.92,0,0-3-1-6-1-8-3-9-9-21-14-28-24,6.91,5.53,1.46.81,0,0l20.73,16.58c5.23,4.19,11.18,11.99,18.5,8.33-3-1.23-7.51-2.16-9.69-3.97-8.54-7.94-21.54-10.94-26-23.95-.8.55-1,1.69-.77,2.6.45-.75.62-1.71.77-2.6-3.54-.99-6.54,2.01-6.54,5.01,2,25-1,51,.44,76.17"/>
    <path class="cls-5" d="M184.02,55.76c.8.5,3.17,1.79,3.33,2.46.02.08-.28.04-.39-.03l-2.64-1.61c-1.62-.99-3.09-1.98-4.82-2.74-.68-.3-1.26-.72-1.65-1.46,1.01.38,1.84.7,2.76,1.13.43.2.85.75,1.27.98.76.42,1.4.82,2.13,1.27Z"/>
    <path class="cls-5" d="M120.65,83.27c-1.75.92-3.81,1.18-5.84,1,1.84-.87,3.77-1.11,5.84-1Z"/>
    <path class="cls-5" d="M144.91,79.65c-1.02.35-2.15.55-3.29.62-1.23.08-2.32.72-3.65.42,2.21-.81,4.52-1.32,6.94-1.04Z"/>
    <path class="cls-5" d="M77.52,75.44l2.08-.36c-.51,1.48-3.36.58-2.08.36Z"/>
    <path class="cls-5" d="M96.34,86.29c-1.04.54-2.12.42-3.17.28,1.06-.3,2.05-.46,3.17-.28Z"/>
    <path class="cls-5" d="M166.1,76.84c-.83.3-1.72.46-2.68.3.8-.43,1.66-.54,2.68-.3Z"/>
    <path class="cls-8" d="M76.73,126.67c.02.11-.02.41-.04.5s-.34.18-.38.09l-.35-.9-.91.35c-.33-1.03-.3-2.03-.5-3.05l-1.39-7.1c-.4-2.03-.97-4-2.23-5.64-.51-.67-1.09-1.2-1.68-1.86-1.12-1.24-2.97-2.21-4.65-1.61-1.49.53-2.69,1.65-3.9,2.63-.2.17-.37.77-.62.87-.36.16-.9-.09-1.11-.33-.22-.25-.43-.9-.33-1.25.7-2.52.54-4.92.47-7.48l-.12-4.98c-.03-1.13.01-2.14-.15-3.27-.14-1,.08-2.08-.22-3.05-.52-1.66-.4-6.09.3-7.51.61-1.23,1.78-1.73,3.01-1.32,1.11.36,1.67-.33,2.45-.86.07-.05.34.15.28.21l-1.02,1.1c.73.73,1.54,1.35,2.4,1.87,1.16.7,1.79,1.88,2.77,2.75,1.23,1.1,2.36,2.04,3.37,3.39,1.18,1.58,2.9,2.9,3.61,4.83.78,2.15.93,4.57.95,6.85l.1,8.21c.03,2.72-.14,5.31-.18,8.03l-.07,5.64c-.01,1.01-.11,1.84.13,2.91ZM75.22,111.62c-1.54-3.45-2.93-6.59-7.16-6.47-5.31.15-3.16,1.56-6.28,1.55-.17-1.82.78-2.2.25-4.54-.27-1.18-.17-9.68-.19-9.85l-.28-2.36.25-5.97c.02-.38.33-.9.44-1.35-.57-.28-1.39-.37-2-.05-1.33.7-1.27,3.34-1.25,4.7,0,.63-.1,1.34.07,1.94.37,1.32.44,2.55.47,3.91l.12,4.05.05,4.15c.03,2.19.36,4.33-.1,6.49-.16.76-.44,1.49-.05,2.34,1.02-1.09,2.18-1.8,3.31-2.61,1.6-1.15,3.24-1.29,5.1-.48,1.15.5,1.95,1.56,2.84,2.49.55.57.97,1.05,1.34,1.76.72,1.41,1.29,2.81,1.58,4.37l.53,2.83,1.35,6.74c.68-1.7.17-3.37.26-5.05l.26-5.04c.07-1.31-.38-2.35-.91-3.54ZM73.38,106.65c1.15,1.45,1.69,3.04,2.73,4.77l-.03-9.62c0-1.59-2.4-.54-3.29-1.64-.42-.52-.1-1.44-.11-2.05-.03-1.88.09-3.56.58-5.43-1.17-1.31-2.2-2.68-3.46-3.89-.84-.8-2.03-1.56-2.54-2.54-.06-.12-.42-.3-.48-.21-.81,1.24-.67,5.57-1.09,4.79-.46-.87.37-4.24.77-5.36l-3-2.3c-.14-.11-.56-.11-.69-.03-.7.46-.49,3.26-.5,4.4,0,.89-.18,1.78-.03,2.66.57,3.36-.34,3.54.28,6.2l.88-1.61c.2-.37.72-.73,1.1-.67l-1.34,1.79c-.69.93-.72,1.51-.66,2.65.07,1.31-.1,2.65.23,3.99.4,1.63-.48,2.69-.18,3.38.11.26,1.6-1.51,4.26-1.53.97,0,1.24-.44,1.77-1.06l2.35-2.77c.21-.24.7-.33.93-.15l-3.09,3.22c-1.37,1.42,1.86-.43,4.58,2.99ZM73.69,93.48c-.57,1.33-.73,6.07.5,6.56.58.23,1.08.34,1.68.18-.28-2.92.08-4.68-2.18-6.74Z"/>
    <path class="cls-8" d="M85.13,156.47c.42,2.35.39,4.69-.02,7.04.17,1.63.23,3.23.2,4.83.15-.01.31,0,.46.01.04-1.27.12-2.49-.09-3.75-.17-1.04.01-1.97.14-2.98.32-2.53-.31-5.05-.29-7.57.02-1.55.14-2.83.02-4.53l-.29-4.07c0-.1-.32-.18-.33-.1-.01.07-.07.28-.06.37l.29,6.75c.06,1.4-.27,2.61-.03,4Z"/>
    <path class="cls-8" d="M85.43,103.81c.55-.58.73,7.21.76,7.64.09,1.32-.1,2.44-.24,3.75-.29,2.58-.22,5.14-.35,7.77-.1,1.87.17,3.7.22,5.56.03.97.41,1.99-.34,2.92-.17-2.74-.52-5.34-.41-8.01l.31-7.52c.05-1.28.51-2.45.28-3.77-.14-.8.02-1.59-.03-2.45l-.38-5.52c0-.12.13-.33.18-.38Z"/>
    <path class="cls-8" d="M89.32,116.91c-.74,2.39-1.22,4.68-.84,7.29,1.21,8.19-.56,8.71-.46,8.06,1.03-7.08-1.48-8.73.71-15.2.57-1.68-1.03-4.72.12-4.62.17,1.39.91,3.04.46,4.48Z"/>
    <path class="cls-8" d="M89.7,94.85c.02,1.05.2,2.2-.04,3.18-.52,2.1-1.1,5.28-.91,7.27.08.82-.98.3-.48-2.41.21-1.15.22-2.32.52-3.42.87-3.27-.08-3.99.92-4.62Z"/>
    <path class="cls-8" d="M88.06,167.99l-.02-1.71.02-2.58c-.23-.01-.48.44-.49.77l-.07,3.62c.19-.05.37-.08.56-.09Z"/>
    <path class="cls-8" d="M84.76,138.1c0-.55.25-3.92.6-4.11.06-.03.2-.01.2.06.07.74-.41,3.65-.27,6.18.03.48-.16.98-.49,1.29l-.04-3.42Z"/>
    <path class="cls-8" d="M85.02,90.12c-.05,1.96.14,3.71.44,5.59.07.42.13.9-.31,1.22-.27-.93-.98-6.71-.5-7.01l.2-.12c.06-.04.17.25.17.33Z"/>
    <path class="cls-8" d="M88.04,138c-.11,2.2,1.24,3.51.49,4.07-.54-.89-1.67-3.31-.49-4.07Z"/>
    <path class="cls-8" d="M88.21,157.16c.13.66.35,1.28-.25,1.75-.21-1.35-.72-2.83.11-4.17.28.81-.02,1.58.15,2.42Z"/>
    <path class="cls-8" d="M88.39,147.68c.02.44-.03.8-.34,1.03-.29-1.03-.6-2.24.24-3.22l.1,2.2Z"/>
    <path class="cls-8" d="M112.84,65.73l-.81-.93c-.56,2.1-.58,4.16-.06,6.11.14.52.62,1.02.03,1.48-.51-.79-.83-1.77-.82-2.77l.05-3.85c-2.29.4-4.45.84-6.71.91-2.81.09-5.49.11-8.22.8.24,3.26.77,6.29,1.36,9.37.11.56.11,1.17-.31,1.61l-1.39-8.24c-.1-.61-.29-1.14-.28-1.78.02-.93-.1-1.79-.25-2.82-3.88.43-2.57,1.38-4.98.56-.5-.17-1.27.66-1.96.21.13-1.07-.21-2.41.07-3.48.19-.71,1.38-1.51,2.04-1.58l2.41-.26c.93-.1,2.62-.59,3.26.4.96,1.49.77,3.37.84,5.17,2.57-.61,5.02-.58,7.49-.68,2.1-.09,4.05-.52,6.11-.76.41-.05.84-.53.77-.96l-.61-3.78,4.63-1.31c1.54-.43,3.52-.04,4.14,1.61.18.48-.27,1.49.12,2.04.1.14,0,.59-.1.72-.12.15-.55.27-.76.22-2.6-.58-2.85,1.59-5.4.37-.16-.08-.57.21-.58.39s0,.59.06.76l.13.37c.02.06-.24.16-.28.11ZM92.96,65.07c-1.22-.31-2.65-.34-3.79-.02-.17.05-.01.65.16.66.88.02,1.12-.9,2.02-.17.49.4,1.4.29,1.62-.47ZM93.96,61.93c-.36.52-1.26.45-1.89.22-.27-.1-2.83,0-2.87.88-.02.4.42.9.71,1.08.33.2.99,0,1.37.06,1.63.21,3.26.41,4.7-.59.42-.29.22-1.17,0-1.51-.44-.67-1.43-.66-1.99-.6-.08,0,.04.37-.03.47ZM96.34,64.11c-.38.13-.8.32-.81.52,0,.32.59,1.04.89.92.37-.15.13-1.15-.09-1.43ZM112.04,62.12c-.58.67-.09,1.27.4,1.69.38-.03.71-.21.9-.47l-1.3-1.22ZM118.99,60.85c-.52-1.2-1.78-1.33-2.8-1.15-.75.13-4.08.56-3.82,1.43.28.93,4.4-.4,5.83.84.33-.11.96-.75.8-1.12ZM117.7,62.05c-1.6-.06-3.07-.1-4.66.06.16,1.01,4.35,1.01,4.66-.06ZM115.54,63.56c-.5-.23-1.04-.28-1.51-.09.42.48,1,.52,1.51.09ZM118.84,62.16c-.36,0-1.02.51-.75.69.3.2.84.22.99.05.13-.15-.03-.74-.24-.74Z"/>
    <path class="cls-8" d="M107.64,79.45c-.35-.1-1.31.08-1.47-.24-.68-1.35.67-2.69.61-3.79-1.21.43-1.04-2.98-3.71-2-.48.18-1.04.19-1.53-.1-.25-.15-1.09-.09-.99.17,1.66,4.28.51,3.02.43,2.76l-.49-1.59c-.6.73.48,8.86-.59,8.64-.12-.02-.29-.3-.26-.43.57-3.35-.08-5.91.28-8.12.23-1.44-1.42-.59-1.01-4.4.08-.71.72-1.58,1.24-1.96,1.26-.94,2.69-.6,4.05-.36.97.17,1.71.37,2.55.88,1.83,1.12.59,1.05.77,4.21l-1.28.72c.11.51.37,1.1.62,1.47,1.14-.63,2.19-1.1,3.32-1.52s2.24-.11,3.39.16c1.39.32,2.25,1.4,2.14,2.79-.04.47.2,1.4-.12,1.72-1.9,1.85.3,2.7-.54,3.79-.8-.87-.38-2.4-.99-2.96-.16-.15-.71-.2-.9-.06-.86.65-1.89.36-2.84.32-.9-.03-1.64.18-2.67-.12ZM99.63,71.71c-.04.09-.1.31-.13.47-.05.24.23.69.47.7.21,0,.57-.27.64-.5.11-.39-.9-.84-.97-.67ZM107.04,70.03c-.54-.62-1.63-1.2-2.43-1.31-.99-.13-1.79.34-2.82.3-.76-.03-2.28.54-2.07,1.51s1.75,1.4,2.61,1.31c1.34-.14,2.6-.36,3.84-.66.38-.09,1.24-.73.87-1.15ZM106.28,71.81l-4.17.61c-.13.02-.17.41-.06.41,1.29.06.46-.29,2.81-.1l1.66.14c.23.02.39-.31.39-.62,0-.26-.21-.5-.62-.44ZM106.74,77.6c-.17.56-.16.76.02,1.19.58-.06.89-.12,1.45-.27-.46-.49-.8-.69-1.48-.91ZM114.34,75.02c-.94-.34-2.14-.76-3.04-.84-.28-.03-.38.78-.44.99-1.11-.57-3.03-.09-3.19,1.31-.13,1.12,1.52,1.47,2.4,1.16,1.62-.57,3.11-.94,4.77-1.3.42-.09-.14-1.2-.51-1.33ZM115.04,78.27c1.2-1.67-3.67.25-3.95.61.34.37.92.18,1.3,0,1.8-.87,2.13.12,2.65-.6Z"/>
    <path class="cls-8" d="M140.76,62.72c.21.43.23,1.28.02,1.8-.57-1.11-.6-2.19-.89-3.46l-2.92.42c-.19.03-.59.37-.77.33-.56-.13-.81-.92-1.86-.75-.62.1-1.43,2.34-.42,3.41-1.5.22-.82,4.37-1.41,5.76-.66-1.31.67-5.79-.02-6.18-.24-.14-.7-.33-1.16-.34-3.5-.08-7.76.33-11.18.56-.28.02-.14-.56,0-.6,1.38-.35,3.84-.47,5.46-.51,1.84-.05,3.68-.54,5.51-.24l1.59.27c.71-1.04.23-1.88,0-2.84-.2-.79-.06-1.79-.06-2.68,1.34-.56,2.43-1.11,3.82-1.5.83-.24,2.47-.03,3.15.68.7.72,1.37,2.29,1.33,3.27s-.71,1.52-.19,2.6ZM140.16,59.52c-1.23.57-2.48.48-3.7.32l-2.83-.37c-.29-.04-.46.45-.35.73.28.69,1.13-.5,2.86.81.23.17.79-.23,1.1-.27.98-.12,2.26-.27,3.13-.47.16-.03-.04-.84-.21-.76ZM139.27,57.37l-.82.68c-.07-.37-.14-.76-.31-.92-.56-.55-4.48.59-4.42,1.34.01.14.31.42.46.44l3.53.55c.62.1,1.62.06,2.01-.46.3-.4-.16-1.19-.45-1.62Z"/>
    <path class="cls-8" d="M151.22,68.86c-.45-.49-.51-1.47-.95-1.4-1.07.15-1.84.13-2.86-.06-.62-.12-1.21.48-1.96.44-.85-.05-2.55-.18-3.03.74-.56,1.09-.3,2.54-.52,3.73-.46,2.49.14,4.71.08,5.26-.15,1.25-.85-1.76-.77-3.49.1-2.22.44-4.31.69-6.51.12-1.1-.15-2.33.54-3.3.38-.53,1.38-.62,1.74-1.21s.69-1.2,1.59-1.04c1.49.28,3.26.42,4.56,1.42.57.44.95,1.9.92,2.6-.1,2.55.26,1.91.19,2.72,0,.06-.18.14-.23.09ZM150.09,64.41c-1.11,2.23-5.06,2.26-6.87,1.83-.32-.08-.78.96-.48,1.09.44.2,1.22-.38,1.61-.27,1.07.3,1.9-.3,2.85-.36,1.1-.07,2.54.78,3.4-.41.32-.45-.18-1.41-.5-1.89ZM149.41,63.86c-.23-.9-1.33-.11-1.83-.24-1.1-.3-2.57-.44-3.69.51-.23.19-.75.37-.77.71-.09,1.46,3.46.83,4.32.72.81-.1,2.21-.72,1.97-1.69Z"/>
    <path class="cls-8" d="M163.44,64.68l.17,3.06c0,.06-.05.27-.09.29-.04.02-.09.04-.13.06-.07.02-.17-.21-.18-.33l-.64-7.16c-.05-.58-.79-1.1,0-1.87l-1.95.06c1.14-.03-4.42-.92-5.55,0-.9.73-1.09-2.64-.66-3.57.62-1.35,2.5-2.21,3.95-1.97.6.1,1.13.6,1.72.44.93-.26,1.38.49,1.99.77.94.44,1.19.88,1.5,1.76.38,1.09.04,1.65-.19,2.64-.43,1.87-.04,3.91.07,5.83ZM157.41,57.34l-2.55-.52c-.09.27-.05.82.1,1.1.46-.51,3.7.07,2.75-.47-.05-.03-.23-.1-.3-.11ZM159.29,54.24c-2.06.5-2.2-1.33-4.22.94-.33.37.05.9.43,1.04,2.58.98,6.19-.07,6.21-.87.01-.65-1.17-1.41-2.42-1.11ZM162.53,55.37c-1.04,1.72-2.77,1.25-4.18,2.03.94.47,1.91.78,2.81.65l1.93-.28c.19-.86-.03-1.73-.56-2.4Z"/>
    <path class="cls-8" d="M131.81,75.33c-.74-.33-1.32-.58-1.76-1.34l-1.53.76c-.07-.68-.11-1.24-.65-1.66l-.13,4.44c-.03.92.32,1.81.69,2.57.4.82-1.27.75-1.15-2.82.08-2.43.05-5.32-.23-7.63-.01-.1.11-.34.16-.39.65-.61.35,3.04,1.88,4.63,2.81-1.06,3.65-2.6,7.02-2.11,1.05.15,2.39,1.49,2.15,2.53-.18.75-1.47.87-2.01,1.12-1.51.7-2.93.57-4.42-.1ZM134.6,73.32c.13-1.85-3.22-.05-3.62.66,1.96,1.63,4.56,1.53,6.6.1-.26-.77-1.06-1.74-1.84-1.55-.4.1-.71.93-1.14.78Z"/>
    <path class="cls-8" d="M126.41,65.2c1.19.47,1.44,2.17,1.19,2.52-.12.16-.5.41-.7.43-.95.12-1.64.77-2.47,1-.12.03-3.44.28-3.94-.18-.43-.39-.62-1.92-.22-2.59.2-.34.84-.47,1.25-.69,1.57-.81,3.19-1.17,4.9-.49ZM126.32,65.95c-1.82-.68-3.65-.31-5.28.63-.98.57,1.26,1.9,2.25,1.81,1.14-.1,2.32-.38,3.37-.84.58-.25.23-1.39-.34-1.61Z"/>
    <path class="cls-8" d="M145.34,53.66c.11-.17,1.5-2.36,1.86-1.64.25.51-1.51,1.5-1.94,3.55-.14.67.03,1.22.71,1.41-.25.47-.59.6-1.03.69l-2.01.41-1.91-3.34c-.31-.54-1.98-1.03-1.6-1.8.26-.51,2.07,1.22,2.17,1.36,1.15,1.54,1.26,3.21,2.57,2.77,1.01-.34-.16-1.32,1.2-3.41Z"/>
    <path class="cls-8" d="M155.49,67.05c0,.09-.08.36-.11.42-.53.85-.53-4.43-.52-4.73.06-1.93-.36-2.6-.17-3.37.02-.1.33-.18.38-.1.26.37.32,1.16.32,1.71-.03,2,0,4.08.1,6.07Z"/>
    <path class="cls-8" d="M118.79,63.96c1.12,1-.04,1.78.75,4.2.04.11.01.44-.09.43s-.41-.15-.44-.26l-.44-1.65-1.36,1.87c-.14-.43.04-.92.31-1.23,1.41-1.58.39-2.42,1.27-3.37Z"/>
    <path class="cls-8" d="M77.91,64.27c.35.32.75,1.16.24,1.29-.38.1-.71-.73-.98-.99l-2.72-2.58c-.12-.11-.14-.57,0-.62s.51.02.63.15c.92.94,1.81,1.83,2.83,2.75Z"/>
    <path class="cls-8" d="M84,60.2c-.22.7-.87.81-1.32,1.21-1.58,1.43-.69,3.7-1.3,3.69-.92-.03-.14-2.63.21-3.32.47-.9,1.39-1.44,2.41-1.58Z"/>
    <path class="cls-8" d="M151.58,72.51c-.72,1.56.39,3.04.3,3.61-.11.71-1.76-1.41-.82-3.79.03-.08.32-.18.39-.23s.17.34.13.41Z"/>
    <path class="cls-8" d="M130.79,75.83c-1.02,2.09.19,3.37-.58,3.87-.42-.77-.65-4.02.21-4.34.14-.05.44.33.38.46Z"/>
    <path class="cls-8" d="M138.4,74.85c.44-.33,1.4,2.93.85,2.73-.66-.24-1.55-2.19-.85-2.73Z"/>
    <path class="cls-8" d="M81.07,65.9c-.92.32-1.85.37-2.74.33.53-.96,1.91-1.02,2.74-.33Z"/>
    <path class="cls-8" d="M92.16,83.25c.3.29,1.45,1.49,1.18,1.84-.38.49-1.3-.87-1.5-1.17-.11-.17.18-.81.33-.67Z"/>
    <path class="cls-8" d="M141.43,52.54c.1-.89,1.71-1.04,2.23-.84.12.05.06.47-.09.5-.57.12-1.53.26-2.15.33Z"/>
    <path class="cls-5" d="M118.84,62.16c.21,0,.37.59.24.74-.15.18-.69.16-.99-.05-.27-.19.39-.7.75-.69Z"/>
    <path class="cls-5" d="M115.54,63.56c-.51.43-1.09.39-1.51-.09.47-.19,1.01-.15,1.51.09Z"/>
    <path class="cls-5" d="M157.41,57.34c.07.01.25.08.3.11.95.54-2.29-.03-2.75.47-.14-.27-.18-.83-.1-1.1l2.55.52Z"/>
    <g>
      <path class="cls-8" d="M159.73,108.86c1.37-2.2,3.51-1.63,3.52-1.58l.03.46c.04.62-.8-.58-1.83,1.14s-2.1,3.29-2.16,5.31c-.02.8,1.21,1.43,1.88,1.59,4.24.99,3.82,3.8,5.8,3.14.03.24-.18,1.19.12,1.37.92.57,1.58,2.21,2.57,2.74,1.35.72,3.22-.35,4.6-.47,1.38-.13,2.25-.95,2.23-2.29-.03-2.66.3-8.77-.38-11.12-.19-.67-1.74-.96-2.1-2.45-.02-.07.08-.21.15-.2.73.18.92,1.17,1.97,1.73.19-.39.31-.69.35-1.05.39-3.46.05-6.83-.14-10.28-.07-1.31.02-2.22-.94-3.25-.24-.25-.32-.93-.62-1.1-.32-.18-1.58-.41-1.53,0l1.12,9.23c.1.81.21,1.51-.24,2.18-.33-1.26-.2-2.4-.39-3.58l-.96-5.97c-.12-.76-.35-1.42-.36-2.27,0-.36-.91-.52-1.27-.61-2.14-.55-4.32-1.18-6.51-.62s-4.35.63-6.58,1.03l-4.05.74c-.86.16-1.35.68-1.35,1.49v2.32c0,.94.67,1.32,1.5,1.34,1.59.04,3.13.15,4.72-.17.97-.19,1.38-1.14,1.89-1.02s-.93,1.85-3.09,1.9c-1.45.04-2.79.06-4.21.02-2.16-.07-1.16-3.83-1.18-5.39-1.16-.14-2.16.5-3.27.65-2.94.38-5.82.84-8.79.85l-4.91.02c-1.12,0-2.13.58-3.23.81-1.87.39-3.38-.22-4.87,1.27-1.98,1.97-3.56,2.59-5.69,4.66-.11,1.49.1,2.92.03,4.4l-.22,4.44c-.08,1.66,1.39,7.39.96,9.89-.17,1-.08,1.92-.1,2.97-.05,2.03-.13,4.3.22,6.28.02.11-.07.38-.12.46-.88,1.42-.66-8.17-.65-8.58.02-1.24.38-2.33.14-3.53-.34-1.71-.53-3.37-.76-5.09-.16-1.22-.44-2.33-.23-3.57.52-3.1-.36-7.19.57-8.16,2.06-2.14,3.48-2.68,4.75-3.91,2.76-2.67,2.9-1.59,6.11-2.23,1.34-.27,2.58-.89,3.97-.85,2.61.08,5.11.08,7.72-.29,1.65-.24,3.33-.15,4.93-.51l4.32-.95,3.58-.73c1.06-.22,1.91-.43,3.02-.44,2.38,0,4.97-1.28,7.66-1.07,2.26.17,4.3.91,6.42,1.67,1.55.56,1.41-.9,2.91,2.66.36.86.09,1.83.21,2.74.49,3.68.38,7.24.19,10.94-.21,3.92.23,5.5.09,9.19-.06,1.6.2,3.29-.46,4.78-.48,1.08-1.85,1.16-2.84,1.4s-4.04.84-4.63.68c-.31-.09-.43-.77-.67-1.02-1.79-1.92-3.59-3.8-5.47-5.61-.85-.82-2.26-.71-3.17-1.33l-.49-.34c-.14-.1-.37.41-.39.58l-.03.23s-.18.05-.19,0l-.09-.33c-.11-.38-.06-1.3-.6-1.47-1.54-.48-3.18-.81-4.8-.84-.86-.02-1.73-.14-2.57-.1-1.91.09-3.81.64-5.6,1.21-1.56.5-6.37,3.51-7.43,4.63-1.73,1.82-3.31,3.82-4.33,6.09l-1.8,4.01c-1.74.91-3.6,1.11-5.56,1.17l-3.3.1c-.16,0-.21-.51-.09-.59.87-.58,7.12.18,8.33-1.37,1.33-1.7,1.75-3.88,2.97-5.63l1.67-2.39c1.94-2.77,3.45-3.25,5.96-4.92,1.61-1.08,3.22-1.92,5.13-2.3,1.51-.3,3-.81,4.53-.74,2.5.1,4.84.24,7.25,1.04l.15-2.74c.21.07.7.09.8-.11l1.6-2.91c-.7-.18-1.89,2.7-2.04,1.95-.09-.45.38-1.05.62-1.44Z"/>
      <path class="cls-8" d="M164.94,105.44c2.09,1.47,5.36,1.31,6.79-.15.05-.05.27-.11.3-.15.04-.06.2.3.14.35-1.8,1.72-3.45,2.03-6.15,1.3l-2.21-.6c-1.19-.32.62-4.01-1.53-5.09-.41-.21-.84-.73-.75-1.23.73.22.98.79,1.71,1.35.2-1.18.13-2.29.04-3.45-.05-.7-.06-6.64.59-5.97.06.07.18.3.15.42-.36,1.96-.23,4.21-.18,6.29l.13,5.38c0,.33,0,.76.09,1.03.08.22.66.36.87.51Z"/>
      <path class="cls-8" d="M150.08,110.23c-.9,1.57-2.68,2.22-4.3,1.71-2.37-.76-3.24.07-5.04-1.35-.39-.31-.97-.26-1.31.12l-2.84,3.13c-.97,1.07-1.05,2.38-1.57,3.77l-.27-.82c-.13.04-.38.14-.51.14-.16,0-.41-.27-.54-.41-1.83-2.04-4.48-2.86-4.39-3.69.12-1.11,5.16,3.37,5.55,4,1.19-3.96,2.08-3.73,4.36-6.84.41-.56,1.16-.57,1.7-.15,1.98,1.54,2.63.66,5.19,1.43,2.27.69,2.71-.95,3.96-1.03Z"/>
      <path class="cls-8" d="M132.27,100.64c4.31,1.43,5.59-.07,6.79-.18.13-.01.15.38.05.44l-.55.27c-1.64.81-3.28.84-5.06.48-1-.2-2.01-.3-2.89-.85l-.26-2.82c-.05-.5.08-1.08.42-1.44.23,1.19.17,2.31,0,3.48.49-.01.97.46,1.5.63Z"/>
      <path class="cls-8" d="M140.29,99.4c.09,2.46.2,4.71.1,7.09-.03.79.21,1.62-.26,2.37-.49-1.69-.16-3.31-.22-4.97-.09-2.65-.17-5.2-.04-7.85,0-.15.41-.53.44-.37.28,1.15-.07,2.46-.02,3.72Z"/>
      <path class="cls-8" d="M126.96,102.77c.02.06,2.59,9.61,1.39,7.92-.05-.07-.21-.31-.23-.46-.35-1.96-.9-4.39-1.49-6.43-.23-.77-.91-4.32.12-4.26.2.01.51.47.42.66-.42.85-.49,1.51-.21,2.56Z"/>
      <path class="cls-8" d="M152.3,98.88c.18.37.27.69.18.93-.07.2-.47.48-.67.54-1.84.57-.42,1.83-.97,3.19-.42-1.29-1.36-7.41-.91-8.15s.42,4.55.85,5.05l1.52-1.55Z"/>
      <path class="cls-8" d="M128.09,112.15c.12,0,.14.43.05.48s-.34.16-.46.18l-2.92.47c-1,.16-.62-.89,3.34-1.14Z"/>
      <path class="cls-8" d="M129.95,101.5c.25.14.36.74.33,1.05-.03.26-.49.37-.74.58-.63.52-.39,1.5-1.14,2.04.02-1.34.63-2.57,1.56-3.67Z"/>
      <path class="cls-8" d="M152.58,109.5c.44,2.22,2.26,2.29,1.92,3.11-.75-.13-3.59-2.57-1.92-3.11Z"/>
      <path class="cls-8" d="M161.9,94.33l.33,2.68c.01.1-.18.43-.24.38-.51-.38-.7-3.32-.38-3.3.07,0,.28.17.29.24Z"/>
      <path class="cls-8" d="M138.67,95.25c.18.61,0,1.17-.39,1.65-.12-.57-.02-1.14.39-1.65Z"/>
    </g>
  </g>
  <g>
    <path class="cls-5" d="M72,202.93c.11-.04-.24.44-.25.43-.05-.1.13-.38.25-.43Z"/>
    <g>
      <path class="cls-8" d="M86.15,198.53c-.21.69-.41,1.68-.55,2.23-.05.23-.1.4-.21.62-.16.31-.26.64-.4.96-.24.53-.78,1.68-1.28,1.94-.16.09-.24.18-.37.3-.55.52.17.21-1.04.76-.2.09-.45.1-.67.14-.16.03-.29.1-.49.21-.2.13-.38.29-.58.42l-1.16.71c-.4.31-.88.59-1.4.55.01-.18.05-.39-.04-.55-.35-.65-.14-.51-.78-.65-.1-.02-.13.09-.15.19,0,.04-.17.01-.16-.03l.21-.65.34-2.85c.02-.28.12-.5.18-.76.12-.56.51-2.43.62-2.95.21-.02.42-.13.63-.17.32-.06.63.02.96,0,.3-.02.61-.19.9-.16.37.04,1.15.13,1.53.18.24.03.41.15.67.02.11-.06.31,0,.44-.03l1.16-.27c.21-.05.42-.1.62-.15-.04,0-.09,0-.13,0-1.41.24-2.83.58-4.23.02-.07-.03-.13-.06-.2-.09-.03.02-.06.04-.08.04-.31-.04-.65.06-.96.1l-.93.14c-.18.03-.31-.05-.45-.16-.23-.2-.52-.34-.69-.59-.16-.24-.34-.57-.45-.83-.04-.09.07-.27.05-.39-.03-.17.65-.06.92-.12l.1-.02c-.09-.11-.18-.21-.27-.32-.26.04-.52.09-.76.14-.1.02-.38-.04-.34.13.03.18.05.3,0,.5l-.31,1.28c-.08.33-.19.6-.13.94.02.12,0,.27.18.29-.46.21-.34.06-.96.34l-.9.41c-.37.18-.95.48-1.21.79-.36.48-1.04.93-1.44,1.51l-.41.61c-.18.27-.28.59-.43.88-.08.15-.09.28-.13.44l-.17.75c-.13.57-.13,1.12-.11,1.74,0,.31.17.61.23.91.17.78.34,1.54,1.07,1.97.23.33.55.57.84.84.32.35.92.74,1.31,1.01.43.29.96.33,1.44.5.96.31,2.05,0,3.02-.16l1.13-.53c.48-.22.96-.43,1.33-.8.66-.27,1.11-.77,1.47-1.35.17-.27.37-.49.5-.79.13-.31.26-.68.38-1,.07-.2.1-.38.16-.58.34-1.09.28-1.24.25-2.39l.48-.57c.31-.56,1.11-1.71,1.31-2.3l.37-1.1c.08-.23.22-.97.23-1.18.02-.36.25-.31.38-1.07-.14.04-.29.06-.43.06ZM77.45,206.57c-.03.37.13.55-.02.68l.19.09c-.06.07-.23.21-.2.31.02.04.09.08.16.11-.1.03-.32.03-.42,0-.02,0-.02-.09,0-.09l.08-.02c.13-.03.11-.17.09-.18-.04,0-.11-.02-.16-.03l-.13-.02s.05-.13.02-.13c-.12-.03-.37-.08-.39-.26-.01-.11.07-.35.19-.4.18-.07.39-.04.58-.06ZM76.99,203.79c-.05.26-.06.51-.15.77-.08.23-.07.45-.12.67l-.2.95c-.05.24-.25.42-.19.71.03.15-.17.42.08.85.09.16.31.09.44.14.62.24.47-.02.95.16l.27-.32c.14-.17.46-.14.69-.19.16-.04.28-.16.42-.24.23-.12.44-.23.66-.36.2-.12.46-.16.65-.29.18-.13.36-.23.56-.35.23-.14.4-.39.7-.48.19.35,0,.79-.05,1.16-.11.57-.23.97-.58,1.42-.12.15-.18.38-.35.49-.84.53-.31.42-1.4.94-.36.17-.72.25-1.1.35-.33.09-.62.15-.97.14-.4,0-.81.08-1.21-.03l-.77-.2c-.34-.09-.61-.33-.78-.62-.51-.49-.71-1.17-.76-1.87l-.06-.73c-.02-.31.03-.52.13-.8.29-.87.52-1.24,1.15-1.89.29-.31.58-.54.97-.72.36-.17.72-.35,1.15-.29l-.13.64ZM77.11,202.83c-.55-.08-.98.25-1.44.49-.23.13-.48.2-.67.42-.35.37-.73.9-1.03,1.32-.54.75-.66,1.49-.48,2.4.09,1.43.85,2.8,2.34,3.13.44.1.88-.01,1.32-.02.2,0,.36.03.57,0,.81-.16,1.51-.37,2.25-.74.64-.31,1.08-.82,1.45-1.4.25-.38.47-.72.56-1.18.05-.27.17-.51.16-.8l-.07-.62s-.03-.13,0-.16c.06-.07.27-.08.35-.06.18.05.12.8.11.93,0,.05-.02.13-.03.21-.02.1-.05.15-.06.21-.04.22-.05.41-.12.61-.19.54-.64,1.19-1.04,1.6-.63.65-.84.95-1.77,1.28-.41.15-.79.3-1.19.48-.51.23-1.07.22-1.62.29-.74.1-1.65-.23-2.26-.68l-.59-.43c-.28-.2-.48-.53-.66-.82-.09-.14-.13-.29-.23-.43-.07-.1-.02-.26,0-.39l-.19-.21c.01-.28-.2-.78-.17-1.02-.01-.7.3-1.31.56-1.94.19-.49.5-.86.83-1.24.31-.35.56-.73.98-.95.54-.27,1.09-.55,1.7-.59.17-.04.36-.13.54-.05.1.05.03.36-.08.35ZM83.61,205.36c-.02.25.02.51-.04.76l-.2.86c-.23.65-.4,1.44-.79,2.01l-.51.72c-.53.76-.89.64-1.47,1.18-.34.32-1.36.63-1.88.92-.17.09-.29.13-.48.16l-1.15.18c-.38.06-.8.09-1.16-.01-.45-.12-1.13-.29-1.56-.47-.18-.06-.3-.23-.46-.33-.33-.2-.61-.43-.9-.69-.5-.44-.97-.89-1.3-1.47-.23-.4-.42-.81-.54-1.24-.11-.56-.21-1.1-.17-1.67.02-.22-.02-.46.05-.68l.38-1.25c.35-.42.45-.82.8-1.31.13-.17.23-.31.32-.52.07-.16.27-.25.36-.4.83-1.16,2.23-1.99,3.64-2.24.9-.23.81.06.99.03.08-.01.21-.06.22-.15,0-.29-1.01-.17-1.2-.17-.03-.31.06-.59.16-.88.1-.29.13-.59.29-.87.15.08.2.25.3.38.28.35.8.56.73.69-.09.15-.07.35-.11.52-.14.71-.37,1.69-.54,2.39-.05.2-.14.19-.31.24-.27.08-.53.18-.8.24-.59.11-1.55.53-1.96.97-.27.29-.57.54-.85.82-.29.28-.4.69-.59,1.03-.39.69-.58,1.41-.51,2.21.04.7.23,1.29.53,1.91l.21.41c.17.32.39.57.67.78,1.05.84,1.8,1.23,3.18,1.14.21,0,1.04-.24,1.29-.27l.41-.04c.23-.02.88-.52,1.28-.7.42-.18.74-.43,1.07-.73.63-.58,1.05-.89,1.36-1.72.11-.29.32-.56.36-.88.03-.39.16-1.02.09-1.4-.01-.07.02-.18-.04-.25-.21-.22.5-.35.74-.66.14.1.12.27.11.43Z"/>
      <path class="cls-8" d="M72,202.93c-.13.05-.3.33-.25.43.02,0,.36-.47.25-.43Z"/>
      <path class="cls-8" d="M77.69,207.28c.12-.1.05-.21,0-.3-.03.09-.05.2,0,.3Z"/>
      <path class="cls-8" d="M76.73,207.63c-.06-.1-.04-.2,0-.28.02-.05-.1-.08-.15-.07-.08.03-.03.24.02.34.02.03.12.03.14,0Z"/>
    </g>
  </g>
  <g>
    <path class="cls-4" d="M41.08,163.45c.1-.04-.22.4-.23.39-.04-.09.12-.35.23-.39Z"/>
    <g>
      <path class="cls-7" d="M53.5,162.06c-.07,0-.14,0-.2,0-.14.27-.23.57-.36.85-.22.48-.72,1.53-1.16,1.77-.15.08-.22.17-.33.28-.5.48.16.19-.95.7-.18.08-.41.09-.61.12-.14.03-.26.09-.44.2-.19.12-.34.27-.53.38l-1.06.65c-.36.28-.8.54-1.28.51.01-.16.05-.36-.03-.51-.32-.59-.13-.46-.72-.6-.09-.02-.12.08-.14.17,0,.04-.16,0-.14-.03l.19-.6.31-2.6c.01-.25.11-.45.16-.69.11-.51.46-2.22.57-2.7.2-.02.38-.12.58-.16.29-.05.58.02.88,0,.13-.01.27-.05.41-.09-.08-.09-.15-.19-.23-.28-.15.02-.3.06-.44.08l-.85.13c-.17.03-.28-.04-.41-.15-.21-.18-.47-.31-.63-.54-.15-.22-.31-.52-.41-.76-.03-.08.06-.24.05-.36-.02-.15.6-.06.84-.11l.66-.14s-.02-.03-.03-.05c-.04-.07-.07-.15-.1-.22-.06.01-.13.03-.2.03-.4.03-.82.11-1.19.19-.09.02-.34-.04-.31.12.03.16.05.28,0,.45l-.29,1.17c-.07.3-.17.54-.12.86.02.11,0,.25.16.26-.42.2-.31.05-.88.31l-.82.37c-.34.16-.87.44-1.1.72-.33.44-.95.84-1.31,1.38l-.38.56c-.17.25-.26.54-.39.8-.07.13-.09.26-.12.41l-.16.68c-.12.52-.12,1.03-.1,1.58,0,.28.15.56.21.83.15.71.31,1.41.98,1.8.21.3.5.52.76.77.29.32.84.68,1.2.92.39.27.88.3,1.32.46.88.28,1.87,0,2.75-.15l1.03-.48c.44-.2.87-.4,1.22-.73.6-.25,1.01-.7,1.34-1.23.16-.25.34-.45.46-.72.12-.28.24-.62.35-.92.06-.18.09-.35.15-.53.31-.99.25-1.14.23-2.18l.44-.52c.29-.51,1.01-1.56,1.2-2.1l.14-.41s-.08.01-.13.02ZM46.05,166.77c-.03.34.12.51-.02.62l.17.08c-.05.07-.21.19-.18.28.02.04.08.07.15.1-.09.03-.29.03-.39,0-.02,0-.02-.08,0-.08l.08-.02c.12-.03.1-.16.08-.16-.04,0-.1-.02-.14-.02l-.12-.02s.04-.12.02-.12c-.11-.03-.34-.07-.36-.24-.01-.1.06-.32.17-.37.16-.06.35-.04.53-.06ZM45.63,164.23c-.05.23-.05.47-.13.7-.07.21-.07.41-.11.61l-.18.87c-.05.22-.23.38-.17.65.03.14-.15.38.07.78.08.15.28.08.4.12.56.22.43-.01.87.15l.24-.3c.13-.16.42-.12.63-.17.15-.03.25-.15.38-.22.21-.11.4-.21.61-.33.18-.11.42-.14.59-.27.17-.12.33-.21.51-.32.21-.13.36-.35.64-.44.17.32,0,.72-.04,1.05-.1.52-.21.89-.53,1.3-.11.14-.16.35-.32.45-.77.49-.29.38-1.27.86-.33.16-.66.23-1.01.32-.3.08-.56.13-.88.13-.37,0-.74.07-1.1-.02l-.7-.18c-.31-.08-.56-.3-.71-.57-.47-.45-.65-1.07-.7-1.7l-.05-.67c-.02-.28.03-.47.11-.73.27-.8.47-1.13,1.05-1.73.27-.28.53-.49.88-.66.33-.16.66-.32,1.05-.27l-.12.59ZM45.74,163.36c-.51-.07-.89.23-1.31.45-.21.12-.44.19-.61.38-.32.34-.67.82-.94,1.2-.49.69-.6,1.36-.44,2.2.09,1.3.78,2.56,2.14,2.85.4.09.81-.01,1.21-.01.18,0,.33.03.52,0,.74-.14,1.38-.34,2.05-.67.58-.29.98-.75,1.33-1.28.22-.35.43-.65.51-1.08.05-.24.15-.47.14-.73l-.06-.57s-.03-.12,0-.15c.06-.07.25-.07.32-.05.16.05.11.73.1.85,0,.05-.02.12-.03.19-.02.09-.04.13-.05.19-.04.2-.05.37-.11.55-.17.5-.58,1.09-.95,1.46-.57.6-.77.87-1.62,1.17-.38.14-.72.27-1.09.44-.47.21-.98.2-1.48.27-.67.09-1.51-.21-2.07-.62l-.54-.4c-.25-.19-.44-.48-.61-.75-.08-.13-.12-.27-.21-.4-.07-.1-.02-.23,0-.35l-.17-.19c0-.25-.18-.71-.16-.93-.01-.64.28-1.2.51-1.77.17-.45.46-.78.76-1.13.28-.32.51-.66.9-.87.49-.24,1-.5,1.55-.54.16-.04.33-.12.49-.05.1.04.03.33-.08.32ZM51.68,165.67c-.01.23.02.47-.04.69l-.18.78c-.21.59-.37,1.32-.72,1.84l-.46.66c-.48.69-.81.59-1.34,1.08-.31.29-1.25.58-1.72.84-.15.09-.26.11-.44.14l-1.05.16c-.35.05-.73.08-1.06-.01-.41-.11-1.03-.27-1.42-.43-.17-.06-.28-.21-.42-.3-.3-.19-.56-.39-.82-.63-.45-.4-.88-.82-1.19-1.35-.21-.36-.38-.74-.49-1.13-.1-.51-.19-1-.16-1.52.02-.2-.02-.42.04-.62l.35-1.14c.32-.39.41-.75.73-1.19.12-.16.21-.29.29-.47.06-.14.25-.23.33-.36.76-1.06,2.04-1.81,3.32-2.04.82-.21.74.05.91.03.08-.01.2-.05.2-.14,0-.27-.93-.16-1.1-.15-.02-.29.05-.54.14-.81.09-.26.12-.54.27-.8.14.08.18.23.27.34.25.32.73.51.67.63-.08.14-.07.32-.1.48-.13.64-.34,1.54-.49,2.18-.04.18-.13.18-.28.22-.24.07-.48.17-.73.22-.54.1-1.42.48-1.79.89-.24.27-.52.5-.78.75-.27.26-.36.63-.54.94-.36.63-.53,1.28-.47,2.01.03.64.21,1.18.49,1.74l.19.38c.15.3.35.52.62.72.96.77,1.64,1.12,2.9,1.04.19,0,.95-.22,1.18-.24l.38-.04c.21-.02.8-.48,1.17-.64.38-.17.67-.39.98-.67.58-.53.96-.81,1.24-1.57.1-.26.3-.51.33-.8.03-.35.14-.93.08-1.28-.01-.07.02-.17-.04-.23-.19-.2.45-.32.68-.6.13.09.11.25.1.39Z"/>
      <path class="cls-7" d="M41.08,163.45c-.12.04-.27.3-.23.39.02,0,.33-.43.23-.39Z"/>
      <path class="cls-7" d="M46.27,167.42c.11-.09.05-.19,0-.27-.03.08-.04.19,0,.27Z"/>
      <path class="cls-7" d="M45.4,167.74c-.05-.09-.03-.18,0-.26.02-.04-.09-.08-.14-.06-.08.02-.02.22.02.31.01.03.11.03.12,0Z"/>
    </g>
  </g>
  <g>
    <path class="cls-5" d="M202.61,177.19c.09-.04-.2.39-.21.38-.04-.09.11-.34.21-.38Z"/>
    <path class="cls-8" d="M214.66,172.55c.1-.09.15-.2.18-.34.22-1.12-.06-.74.02-1.4,0-.06-.02-.13-.07-.14-.05,0-.12.03-.12.08-.04.68.21.64.04,1.23-.04.15-.02.37-.16.48-.54.47-.73.32-.93.45-.31.24-.8.25-1.16.29-.35.04-.66.11-1.02.08-.38-.03-.73-.06-1.08-.23-.13-.06-.28-.1-.39-.21-.17-.18-.38-.26-.58-.4-.04-.03-.07-.06-.1-.1-.13.02-.26.04-.38.06.02.02.04.03.06.05.26.23.47.51.79.65.03.01.07.04.09.07.02.02-.06.1-.1.09-.26-.04-.54.05-.81.09l-.78.13c-.16.02-.26-.04-.38-.15-.2-.17-.44-.3-.58-.52-.04-.06-.08-.13-.12-.19-.22.02-.45.03-.67.04l-.11.48c-.07.29-.16.53-.11.84.02.1,0,.24.15.25-.39.19-.29.05-.81.3l-.75.36c-.31.16-.8.42-1.01.7-.31.43-.87.82-1.21,1.34l-.35.54c-.15.24-.24.52-.36.78-.06.13-.08.25-.11.39l-.15.66c-.11.51-.11,1-.09,1.54,0,.28.14.54.2.81.14.69.29,1.37.9,1.75.2.29.46.5.7.74.27.31.77.66,1.1.9.36.26.81.29,1.21.44.81.27,1.72,0,2.53-.15l.95-.47c.4-.2.8-.38,1.12-.71.55-.24.93-.68,1.23-1.19.14-.24.31-.43.42-.7.11-.28.22-.6.32-.89.06-.17.08-.34.13-.51.29-.96.23-1.1.21-2.11l.4-.5c.26-.5.93-1.51,1.1-2.04l.31-.98c.06-.2.18-.86.19-1.05.01-.33.24-.26.34-1.06,0-.04-.02-.52-.21-.58ZM211.71,173.47c-.1.1-.24.1-.34-.01.11-.01.21,0,.34.01ZM202.61,177.19c.09-.04-.2.39-.21.38-.04-.09.11-.34.21-.38ZM212.36,179.34c-.01.22.02.45-.03.67l-.17.76c-.19.57-.34,1.28-.66,1.78l-.43.64c-.45.67-.75.57-1.24,1.05-.29.28-1.15.56-1.58.82-.14.08-.24.11-.4.14l-.97.16c-.32.05-.67.08-.98-.01-.38-.11-.95-.26-1.31-.41-.15-.06-.25-.21-.39-.29-.28-.18-.52-.38-.76-.61-.42-.39-.81-.79-1.09-1.31-.19-.35-.35-.72-.46-1.1-.09-.5-.17-.97-.14-1.48.01-.2-.02-.4.04-.6l.32-1.11c.3-.38.38-.73.67-1.16.11-.15.19-.28.27-.46.06-.14.23-.22.3-.35.7-1.03,1.88-1.76,3.06-1.98.75-.21.68.05.84.03.07-.01.18-.05.18-.13,0-.26-.85-.15-1.01-.15-.02-.28.05-.53.13-.78.08-.25.11-.53.25-.78.13.07.17.22.25.33.23.31.67.5.61.61-.07.14-.06.31-.09.46-.12.63-.31,1.5-.46,2.12-.04.18-.12.17-.26.22-.22.07-.44.16-.68.21-.5.1-1.3.47-1.64.86-.22.26-.48.48-.71.73-.24.25-.34.61-.5.91-.33.61-.49,1.25-.43,1.95.03.62.19,1.14.45,1.69l.18.37c.14.29.32.5.57.69.88.75,1.51,1.09,2.67,1.01.17,0,.87-.21,1.09-.24l.35-.04c.19-.02.74-.46,1.08-.62.35-.16.62-.38.9-.65.53-.51.88-.79,1.14-1.52.09-.26.27-.5.3-.78.03-.34.13-.9.07-1.24-.01-.07.02-.16-.04-.22-.17-.19.42-.31.62-.58.12.09.1.24.09.38ZM207.17,181.02l.16.08c-.05.06-.19.18-.16.27.02.04.08.07.14.1-.09.03-.27.03-.36,0-.01,0-.02-.08,0-.08l.07-.02c.11-.02.09-.15.07-.16-.04,0-.09-.02-.13-.02l-.11-.02s.04-.11.01-.12c-.1-.03-.31-.07-.33-.23-.01-.1.06-.31.16-.35.15-.06.32-.03.49-.06-.03.33.11.49-.01.6ZM206.58,181.36s-.1.02-.11,0c-.04-.09-.09-.28-.02-.3.04-.01.14.02.13.06-.03.07-.04.16,0,.25ZM206.67,178.63c-.07.2-.06.4-.1.59l-.17.84c-.04.22-.21.37-.16.63.03.13-.14.37.06.76.08.15.26.08.37.12.52.21.4-.01.8.14l.22-.29c.12-.15.38-.12.58-.17.14-.03.23-.14.35-.21.19-.11.37-.2.56-.32.17-.1.39-.14.55-.26.15-.12.3-.21.47-.31.19-.12.33-.34.59-.42.16.31,0,.7-.04,1.02-.09.5-.19.86-.49,1.26-.1.13-.15.34-.3.44-.7.47-.26.37-1.17.83-.3.15-.61.22-.93.31-.28.08-.52.13-.81.12-.34,0-.68.07-1.01-.02l-.65-.18c-.28-.08-.52-.29-.66-.55-.43-.44-.6-1.04-.64-1.65l-.05-.65c-.02-.27.03-.46.11-.71.24-.78.43-1.1.96-1.68.25-.27.49-.48.81-.64.3-.15.61-.31.97-.26l-.11.57c-.04.23-.05.46-.12.68ZM207.38,180.78c.05.08.1.17,0,.26-.04-.08-.03-.18,0-.26ZM206.9,177.1c-.47-.07-.82.22-1.21.44-.2.12-.4.18-.56.37-.3.33-.62.8-.87,1.17-.45.67-.56,1.32-.4,2.13.08,1.27.71,2.48,1.97,2.77.37.08.74-.01,1.11-.01.17,0,.31.03.48,0,.68-.14,1.27-.33,1.89-.65.53-.28.9-.73,1.22-1.24.21-.34.39-.64.47-1.05.04-.24.14-.46.13-.71l-.06-.55s-.03-.11,0-.14c.05-.06.23-.07.29-.05.15.04.1.71.09.83,0,.05-.02.11-.02.19-.02.09-.04.13-.05.19-.03.2-.04.36-.1.54-.16.48-.54,1.06-.87,1.42-.53.58-.71.84-1.49,1.14-.35.13-.67.27-1,.43-.43.21-.9.2-1.36.26-.62.09-1.39-.2-1.9-.6l-.5-.38c-.23-.18-.41-.47-.56-.73-.07-.13-.11-.26-.2-.39-.06-.09-.02-.23,0-.34l-.16-.18c0-.25-.17-.69-.15-.91-.01-.62.26-1.16.47-1.72.16-.44.42-.76.7-1.1.26-.31.47-.65.83-.84.45-.24.92-.49,1.43-.52.14-.04.3-.11.45-.05.09.04.02.32-.07.31ZM214.04,175.27c-.04.2-.09.36-.18.55-.13.27-.22.57-.34.85-.2.47-.66,1.48-1.07,1.72-.14.08-.2.16-.31.27-.46.46.14.19-.87.68-.17.08-.38.09-.56.12-.13.03-.24.09-.41.19-.17.12-.32.26-.49.37l-.98.63c-.34.28-.74.52-1.18.49.01-.16.04-.35-.03-.49-.29-.57-.12-.45-.66-.58-.09-.02-.11.08-.13.16,0,.04-.14,0-.13-.03l.18-.58.29-2.52c.01-.25.1-.44.15-.67.1-.49.43-2.16.52-2.62.18-.02.35-.12.53-.16.27-.05.53.02.81,0,.25-.02.51-.17.76-.14.31.03.97.12,1.28.16.2.03.35.13.56.02.09-.05.26,0,.37-.02l.97-.24c.41-.1.82-.19,1.21-.38.09-.05.17-.11.27-.09-.21.57-.43,1.73-.56,2.32Z"/>
  </g>
  <path class="cls-8" d="M56.92,159.19s-.04-.04-.05-.06c-.32-.49-.75-.93-1.19-1.36-.02.19-.05.37-.12.54-.22.59-1.97.79-2.21.21-.34-.84-.29-1.9-.24-2.8-.29-.33-.34-.84-.16-1.25-.04-.18-.03-.36,0-.54h-.02s-.06-1.36-.06-1.36c-.23-.65-.43-1.32-.59-1.95-.3-.4-.51-.87-.64-1.36-.25-.33-.46-.68-.64-1.05,0,0,0,.01,0,.02-.79-1.39-.97-2.87-1.06-4.38-.07-.73-.12-1.45-.17-2.14-.03-.33-.02-.66-.01-.98l-.26-4.13c-.02-.39.28-.71.68-.9-.03-.13-.05-.26-.07-.39-.28.13-.58.26-.92.41-.08.93-.03,1.88.04,2.86-.92-.56-2.13-1.57-3.04-.67,1.16.01,2.99.44,3.12,1.74.28,2.72.06,5.42.95,8.03.45,1.34,1.69,2.42,2.04,3.86.86,3.51-.34,8.18,1.78,7.72l2.39-.52c.27.94.25,2.48-.91,2.86-1.54.51-3.25.14-4.85-.15-.94-4,.13-3.73-.79-8.63-.25-1.31-1.14-2.02-1.89-2.95-1.56-1.96-1.56-4.56-1.73-6.96l-.34-4.94c-.17-2.53,1.9-3.02,4.06-3.23-.02-.15-.03-.3-.03-.46,0-.02,0-.03,0-.05-1.1.23-2.07.47-2.6.65-1.26.42-1.8,1.34-1.93,2.57-.25,2.42-.35,4.72-.12,7.17l.86,9.18c.16,1.73.64,3.09,1.6,4.51.75,1.11,1.2,2.66,2.49,3.32,1.24.63,5.5,1.19,6.36-.32.43-.75.36-1.5.27-2.16ZM46.88,155.86c-.65-4.8-1.14-9.47-1.21-14.36.49,1.21.34,2.51.36,3.83.2,1.66.74,3.23,1.53,4.81,1.56,1.08,2.27,2.7,2.33,4.56l.21,6.41c-1.44-1.69-2.28-3.43-3.23-5.25Z"/>
  <path class="cls-5" d="M54.2,156.71c-.05.54.09,1.16.35,1.5.07-.36.09-.75.19-.99-.13-.14-.25-.29-.37-.44-.06-.03-.11-.06-.17-.08Z"/>
  <path class="cls-8" d="M109.25,192.21c-.19-2.94-.46-5.81-.43-8.78,0-.98.04-2.32-.88-2.92-1.33-.87-3.13-.68-4.64-.34-1.19.28-8.53,2.21-8.67.83-1.5,2.16,7.33-.05,8.14-.24,1.47-.35,5.64-1.13,5.43,1.45-1.13-.76-2.24-.23-3.53-.06l-3.81.49c-1.15.15-5.65,2.25-6.49-.46-.53-1.71-.21-3.39-.2-5.17.01-2.12-.24-4.26-.42-6.37-.13-1.58-1.18-2.63-2.66-2.83-.16.12-.37.19-.63.19-.12,0-.22-.02-.32-.05-1.12.4-2.26.58-3.47.63-.28.01-.57.03-.86.04-1.89.37-2.9.22-3.39-.04-.18-.03-.35-.06-.53-.09-.08-.02-.14-.05-.21-.08-1.17.02-1.41-1.32-2.09-1.91-1.08-.93-2.72-.06-3.58.72-2.43,2.22-.41,4.42-1.01,7.97-1.55.76-2.46,1.98-2.57,3.67-.24,3.87-.52,10.22,2.47,13.04,1.08,3.29,3.68,6.19,7.23,6.88,2.08.41,4.22-.34,6.29-.63l12.73-1.78,5.38-.9c1.77-.29,2.82-1.45,2.7-3.28ZM74.98,175.76c.18,1.77.39,3.32.26,5.14-.84-.96-1.64-1.95-2.01-3.05-.27-.81.97-1.71,1.75-2.1ZM106.49,195.02l-5.22.89-12.83,1.82c-2.01.29-4.14.94-6.09.64-3.73-.59-5.75-3.57-7.26-6.6-.94-1.87-2.11-3.18-2.22-5.46-.12-2.56-.35-5.17.05-7.91l1.55,2.27c.39.58.7,1.05.81,1.84.78-1.29.35-2.7.29-4.08l-.35-9.01c-.06-1.55,2.68-3.67,3.94-2.51,1.22,1.12,1.88,2.32,3.94,2.34,2.36.02,4.89-.35,7.31-.73.66-.1,1.46-.08,1.85.21.51.38,1.02,1.12,1.07,1.77.19,2.19.44,4.34.43,6.54,0,1.77-.34,3.45.16,5.23.94,3.31,5.31,1.13,7.55.78,1.65-.26,3.17-.31,4.82-.76.41-.11,1.23.07,1.5.34.26.26.57.92.59,1.38.08,2.73.22,5.33.44,8.04.13,1.62-.7,2.7-2.32,2.97Z"/>
  <path class="cls-2" d="M93.92,182.26c.94,3.31,5.31,1.13,7.55.78,1.65-.26,3.17-.31,4.82-.76.41-.11,1.23.07,1.5.34s.57.92.59,1.38c.08,2.73.22,5.33.44,8.04.13,1.62-.7,2.7-2.32,2.97l-5.22.89-12.83,1.82c-2.01.29-4.14.94-6.09.64-3.73-.59-5.75-3.57-7.26-6.6-.94-1.87-2.11-3.18-2.22-5.46-.12-2.56-.35-5.17.05-7.91l1.55,2.27c.39.58.7,1.05.81,1.84.78-1.29.35-2.7.29-4.08l-.35-9.01c-.06-1.55,2.68-3.67,3.94-2.51,1.22,1.12,1.88,2.32,3.94,2.34,2.36.02,4.89-.35,7.31-.73.66-.1,1.46-.08,1.85.21.51.38,1.02,1.12,1.07,1.77.19,2.19.44,4.34.43,6.54,0,1.77-.34,3.45.16,5.23ZM91.86,171.03c-1.52.41-2.77.73-4.29.87-.97-.03-2.04.55-3.02.47-2.42-.21-7.74-.69-8.9-2.76-.29,2.4,7.64,3.12,9.02,3.2,1.5.09,3-.77,4.54-.56.95-.35,1.81-.65,2.65-1.21Z"/>
  <path class="cls-5" d="M82.42,168.6c.48.26,1.49.41,3.39.04-1.13.06-2.27.13-3.39-.04Z"/>
  <path class="cls-8" d="M91.86,171.03c-.84.56-1.69.86-2.65,1.21-1.54-.2-3.04.65-4.54.56-1.38-.08-9.31-.8-9.02-3.2,1.16,2.07,6.49,2.55,8.9,2.76.98.08,2.05-.5,3.02-.47,1.52-.14,2.77-.45,4.29-.87Z"/>
  <path class="cls-8" d="M212.12,144.26c-.66-.05-1.44-.3-2.16-.28.03.16.06.32.09.47,2.87.27,4.26.25,5.97,2.65-1.84,1.22-3.79,1.75-5.95,1.58-2.69-.22-.95,5.98-1.74,10.01-.42,2.16-2.65,3.48-4.71,3.59-2.29.11-4.35-.14-5.79,1.56-.81.95-.51,2.02-.55,3.1l-.25,6.35c-1.56.66-3.01.18-4.44-.77-.79-.52-1.2-1.62-1.17-2.69-.13,0-.27,0-.4-.01-.04,1.23.57,2.52.71,2.6,1.09.64,2.55,1.82,3.87,1.77,1.55-.06,3.2-.07,4.7-.36l6.04-1.15c1.74-.33,3.21-.66,5.05-.82.84-.07,2.72-.42,3-1.39.74-2.62.45-5.34.66-8.04.28-3.58.47-7,.56-10.56.03-1.23.58-2.53-.16-3.72l-.85,13.76c-.17,2.76.27,5.78-.76,8.36-.61,1.53-3.47,1.09-4.73,1.39-2.32.55-4.28.89-6.53,1.3-1.69.31-3.28,1.11-5.05.29-.09-1.8.13-3.63.23-5.42.07-1.26-.49-2.58.35-3.67,1.02-1.34,2.75-1.45,4.38-1.42,2.38.04,4.74-.75,5.91-2.9,1.77-3.23-.99-11.11,1.98-10.79,1.78.19,3.15-.26,4.72-.94.49-.21,1.15-.33,1.26-.9.19-1-1.95-2.78-4.22-2.94Z"/>
  <path class="cls-8" d="M194.47,167.65h.03s0,2.4,0,2.4l-.74-.52c-.13.09-.28.17-.44.2.88.65,1.68,1.15,1.64-.25l-.18-5.37c-.12-3.69,2.16-1.99,7-3.6.69-.23,1.46-.1,1.84.35.72-1.29,2.12-.48,2.37-2.34.5-3.83-.6-6.03.43-10.49l4.28-.75c.3-.05.83-.44,1.01-.66.19-.25-.06-1.04-.36-1.22l-1.26-.76s.02.09.03.14c.25.14.42.38.49.65.39.18.71.49.65.87-.08.46-.82.6-1.35.5h0c-.09.02-.18.04-.28.04-.04.02-.07.04-.11.06-.4.17-.89.21-1.38.25-.4.13-.79.21-1.21.13-.28.06-.55.14-.77.29-.04.03-.08.04-.12.06.23.95-.82,2.79-.52,5.56.19,1.82.26,3.41.08,5.25-.06.59-1.07,1.79-1.61,1.23,0,0,0,0,0,0-.08.03-.16.05-.25.06-.1.03-.2.06-.31.06,0,.01,0,.03.01.04l-3.97.88s-.01-.04-.02-.06c-.07.02-.14.03-.22.04.02.04.04.08.06.13l-2.89.3c-1.21.13-2.11,1.04-2.08,2.31l.11,3.9c.02.11.03.23.03.35Z"/>
  <path class="cls-5" d="M206.93,147.26c.42.09.81,0,1.21-.13-.41.03-.83.05-1.21.13Z"/>
  <polyline class="cls-1" points="240.92 241.27 240.92 70.54 0 70.54"/>
  <polyline class="cls-1" points="240.92 241.27 240.92 70.54 0 70.54"/>
  <g>
    <path class="cls-6" d="M367.25,22.24c1.26-2.05,1.95-4.09,1.62-6.41-.17-1.21-.79-1.98-1.42-3-2.24-3.61-4.97-6.73-7.55-10-2.98-3.77-7.51-1.77-10.62.61.34.66.7,1.62,1.38,1.9,1.26.51,3.69-2.26,5.43-.66-2.34-.6-2.93.46-4.99,1.1,1.15,1.53,3.37,2.12,2.73,3.62-1.08,2.54-2.98,3.28-3.72,5.98,1.54,1.72.02,1.65,2.55,2.41,1.36.41,2.54,2.05,2.6,3.46.05,1.14-2.31,2.15-.87,3.25,1.52,1.17,3.22,2.29,3.56,4.15,1.45-.71,2.43-1.91,3.41-3.17,1.6-2.05,3-4.41,3.35-6.9.24-1.66-.33-2.69-1.09-3.93-1.09-1.77-1.99-3.57-3.56-5.03-.25-.24-.43-.7-.84-.72-.27-.02-.68.09-1.01.26-2.92,1.48-5.59,4.99-6.41,8.25-.31-.89.17-1.58.54-2.31,1.3-2.58,4.07-6.1,6.91-6.53l-2.03-3.18c1.49,1.11,1.91,2.85,3.14,4.08,1.55,1.54,2.56,3.34,3.6,5.16.63,1.1,1.22,1.79,1.1,3.14-.09,1.05-.2,2.05-.66,3.14-1.14,2.7-2.89,5.28-5.1,7.2-1.4,1.22-2.84,1.8-4.57,2.08-1.89.31-3.55-.6-4.22-2.48-.4-1.14-1.25-1.99-1.9-2.96-1-1.49-2.19-2.37-3.49-3.44-1.66-1.37-3.56-1.42-5.67-.41,1.51-1.41,3.94-1.25,5.51-.04.64.49,1.32.91,1.89,1.44,1.35,1.26,2.48,2.81,3.44,4.37,1.1,1.79,1.6,3.55,3.88,3.21.98-.15,2.74-.09,3.35-1.05.16-2.81-4.17-3.47-3.9-5.64l-.98.69-1.61-1.12c.18-1.03-.94-1.42-1.14-2.3-1.02,1.95-2.94-1.77-3.36-2.47-.46-.75-1.13-2.29-.56-2.83.13-.12.5.09.7.17-.65-1.09,1.28-5.14,2.17-5.71-.2.69-3.43,6-1.29,5.65.66-.11.87-1.93,1.49-2.14-.25.82-.6,1.54-1,2.32l1.86-.15c.22-1.43,1.16-2.43,1.98-3.53l1.27-1.71c.26-.35.69-1.25.41-1.62l-2.6-2.28c-.88-.77-1.73-1.6-2.03-2.8,1.09-1.08,2.47-1.65,3.75-2.32.82-.43,1.47-.64,2.4-.63,1.19.02,2.34.06,3.48.64,3.72,1.81,5.93,4.95,8.47,8.04,1.5,1.82,2.84,3.6,4.26,5.5,1.87,2.51,3.56,2.57,3.92,6.45.12,1.3.2,2.38-.19,3.67-1.43,6.56-5.97,11.95-12.47,14.08-1.91.64-3.91.1-5.9-.27l-5.49,5.39c-.19.18-.41.68-.64.66-.24-.03-.71-.33-.99-.48-1.23.54-1.83,2.39-3.1,2.16-.57-.1-.51-.53-.71-1.02l-1.35-3.23c-.67-1.6,1.18-2.01,1.9-3.29l-2.03-1.15-4.31,4.19c-.58.1-1.73-.4-1.88-.97-.45-1.75-.83-3.49-2.07-4.88-2.74-3.05-6.81-4.2-6.09-5.71.39-.82,1.36-1.28,1.98-2.08-1.6-1.62-2.63-.95-3.07-2.62-.21-.81.33-1.11.86-1.69,2.67-2.9,5.19-5.9,8.27-8.37,1.27-1.02,2.98-.7,4.42-.18.28-3.04,1.49-5.99,3.76-8.1.62-.58,1.6.12,1.84.72.29.7,1.03.84,1.15,1.76-1.23-.32-2.47-.93-3.23-1.87-2.04,2.26-2.98,4.98-3.33,7.95-1.34-.58-3.07-1.11-4.36-.08-3.41,2.74-6.27,6.11-9.21,9.49,1.63-.97,2.6-2.53,3.89-3.83l4.42-4.45c.5.36.39.86.55,1.31l1,2.89c-2.4,2.69-6.18,6.69-8.69,9.28-.19.53.68,1.28,1.17,1.58,4.16,2.59,6.05,3.89,7.04,8.81.18.4.97.66,1.4.81l3.97-4.03c1.44-1.46,4.55-3.7,4.89-4.87l-.43-.91c-.1-.22.17-.69.43-.85l-.11.99c-.02.18.41.32.48.54.31,1.02,1.38,1.54,2.24,2.06,1.71,1.04,3,2.5,4.85,3.38,5.75,2.82,11.97-1.39,15.41-5.91,1.8-2.29,2.64-4.91,3.3-7.63.28-1.17.2-2.14.08-3.32-.37-3.7-2.02-3.7-3.8-6.12-2.09-2.91-4.62-5.96-6.91-8.73-.93-1.13-2.54-2.96-3.92-3.59.11.24.26.73.47.95,2.6,2.83,4.78,5.82,6.87,9.04.62.95,1.42,1.87,1.57,2.91.36,2.55-.2,4.69-1.52,6.78-1.09,1.74-1.69,3.79-3.2,5.24l-3.22,3.1c-.62.59-1.55,1.1-2.37,1.45,1.72-1.46,3.68-2.95,5.21-4.59,1.4-1.5,2.11-3.4,3.2-5.16ZM348.5,9.13c-.65-.81-1.16-2.05-1.95-1.79-1.09.36,1.62,1.73,1.95,1.79ZM351.69,22.44c.52-.5,1.77-1.68,2.28-2.16-.16-1.51-.63-2.23-2.35-2.41.61.83-1.46,2.28-1.04,2.2l-.49.1c.43.75.96,1.58,1.61,2.27ZM352.74,23.43l1.48-1.24-.38.75c.46-.47,1.05-1.08,1.13-1.71.09-.69-.5-1.33-.79-1.87l.15.98c.03.19-.53.39-.65.54-.08.09,0,.44-.09.51s-.4.1-.48.19c-.25.27-.99,1.13-1.5,1.2.13.17.8.73,1.12.66ZM350.36,19.75l.17-.36c.16-.33,1.06-.77.85-1.17l-1.14-2.14.29,1.01c-.34,1.23-1.23,1.99-2.05,2.94-.2.22.53.64.79.48-.02.01,1.26-1.11,1.09-.75ZM346.68,17.6l1.36,2.34c1.26-.67,3.06-3.58,1.61-4.15-1.59-.62-1.59.76-2.74-.2l-.83-.06c0,.74.22,1.41.6,2.06ZM332.19,27.79c2.39-2.78,4.21-4.22,6.3-6.86l-1.16-3.63c-.83.6-1.42,1.45-2.15,2.1-2.88,2.58-3.13,3.65-5.69,5.83-.14.12-.28.59-.18.76l2.87,1.8ZM349.76,43.71c-.14.16.59.63.74.48l5.65-5.7c.16-.16-.57-.58-.74-.4l-3.08,3.12c-.81.83-1.74,1.54-2.57,2.49ZM346.22,45.79c.44.13.88.09,1.14-.16l7.52-7.39c.12-.12.37-.52.26-.57l-.5-.23c-.1-.04-.12.35-.18.43-1.02,1.21-2.3,2.15-3.45,3.27l-4.78,4.65ZM344.6,41.51c.34,1.38,1.02,2.56,1.61,3.8l5.02-4.82c1.12-1.07,2.07-2.21,3.14-3.34l-3.24-2.41-2.78,2.72-2.61,2.44c-.4.37-1.32.9-1.14,1.61ZM346.57,38.45c1.52-1.3,2.93-2.45,4.17-3.88-.73-.43-1.2-.88-1.69-1.43l-4.5,4.02,2.01,1.3Z"/>
    <path class="cls-6" d="M352.73,8.48l-3.32,4.12c.66-1.79,2.16-2.81,3.05-4.35.04-.06.16-.22.2-.28.04-.05.21.07.2.14s-.07.31-.12.38Z"/>
    <path class="cls-6" d="M331.53,30.82c1.78-2.13,2.11-1.97,4.06-4.28.74-.87,5-5.89,6.11-5.21-3.86,1.72-6.57,7.03-10.17,9.5Z"/>
    <path class="cls-6" d="M339.63,39.25c.32-.96,1.2-1.54,1.96-2.15,1.34-1.07,2.19-2.55,3.81-3.4-1.63,1.88-3.91,3.88-5.77,5.55Z"/>
    <path class="cls-6" d="M354.19,33.97c-1.18-.4-2.51-.53-3.45-1.53,2.49,1.19,2.92,1.62,5.73.72l-.79.55c1.65-.25,2.79-.86,4.06-1.81-.93,1.55-5.01,2.52-6.72,2.47l-.05-.24s-.16-.02-.24-.02h-.24c-.07,0-.09-.23-.02-.25.81-.22.83.5,1.72.09Z"/>
    <path class="cls-6" d="M345.75,33.35c.51-.85,1.17-1.48,2.01-2.04-.56.83-1.2,1.45-2.01,2.04Z"/>
    <path class="cls-6" d="M343.19,21.5c.22-.13.59-.07.83.18-.25-.02-.4-.05-.83-.18Z"/>
  </g>
  <g>
    <path class="cls-3" d="M349.52,19.74c.62.34,1.43,1.05,2.19.83.25-.07.4-.24.62-.36.06-.04.13-.06.2-.1-.25.13.07-.02.15-.05.29-.09.58-.18.88-.23-.21.04.09.02.16,0-.17.01-.11-.03-.03,0,0,0,.25.08.1.02-.17-.07.25.15.1.06-.11-.07.02.02.04.04.05.05.09.09.13.14-.15-.15.03.05.07.12.03.06.06.12.1.18.07.13-.05-.15,0,0,.04.11.07.22.1.33.01.05.07.43.05.22.03.26.02.52,0,.78-.01.16.03-.15,0,.01-.01.06-.02.12-.04.18,0,.03-.06.21-.02.1s-.05.08-.07.1c.1-.16.04-.07,0-.02-.1.13-.01,0,.03-.02-.02.01-.22.09-.07.04.14-.05-.02,0-.05,0-.14,0,.19,0,.05,0-.05,0-.1,0-.15,0s-.1,0-.15,0c-.11,0,.18.05,0,0-.1-.03-.2-.06-.3-.08-.24-.06.12.06-.01,0-.04-.02-.09-.04-.13-.07-.03-.02-.29-.18-.17-.09.11.08,0,0-.03-.03-.05-.05-.09-.09-.14-.14-.31-.33-.51-.77-.51-1.2,0-.08,0-.15,0-.23,0,.02-.05.12-.01.01.04-.12.11-.25.17-.36.11-.26.22-.52.35-.78.07-.13.14-.25.22-.38.08-.13-.09.09.02-.03.04-.05.09-.09.13-.14.11-.12-.1.08.02-.02.02-.02.19-.12.09-.06s.07-.03.09-.03c.07-.02.14-.05.22-.06.06-.02.12-.03.18-.04,0,0,.29-.05.14-.03-.12.02.07,0,.09,0,.06,0,.12,0,.18,0,.12,0,.24,0,.35,0,.03,0,.21.03.08,0-.14-.02.09.02.12.03.06.01.37.11.27.07-.11-.04.15.08.19.1.2.11-.07-.1.08.07.03.03.1.15.03.03-.08-.13,0,.05.03.07-.09-.12-.06-.14-.03-.04.06.2.03-.14,0-.01-.01.05,0,.1,0,.15,0,.14.04-.15,0-.01-.04.11-.07.22-.1.33-.04.14.07-.14,0-.01-.03.06-.06.12-.09.18-.05.1-.12.19-.18.29-.08.12.11-.13.02-.02-.03.04-.06.07-.1.11-.07.07-.14.14-.21.2-.02.02-.15.12-.04.04.11-.09-.05.04-.08.05-.21.14-.43.25-.66.36-.04.02-.17.07.02,0-.06.02-.12.05-.18.07-.13.05-.25.09-.38.13-.51.16-1.02.28-1.54.4-1.11.26-2.23.54-3.23,1.11-.46.27-.62.9-.36,1.36s.89.62,1.36.36c.12-.07.24-.13.36-.19.06-.03.12-.06.19-.09.15-.07-.22.08.03-.01.28-.1.56-.2.84-.28.55-.16,1.11-.28,1.66-.41,1.15-.27,2.32-.6,3.26-1.35s1.69-2.18,1.27-3.38c-.48-1.36-2.09-1.78-3.39-1.63-.8.1-1.57.33-2.13.95-.48.54-.71,1.21-1.02,1.85-.2.43-.31.83-.31,1.31,0,.5.12.98.32,1.44.28.65.75,1.25,1.35,1.63,1.14.74,2.85.76,3.66-.47.38-.58.45-1.41.4-2.09s-.22-1.39-.61-1.96c-.48-.7-1.18-1.18-2.04-1.22-.75-.04-1.6.25-2.27.57-.14.07-.27.14-.39.24-.02.02-.07.04-.09.06.08-.12.47-.11.62-.07-.16-.04.28.15.08.03-.07-.04-.15-.08-.22-.13-.31-.18-.62-.36-.93-.54-.47-.26-1.08-.11-1.36.36s-.11,1.09.36,1.36h0Z"/>
    <path class="cls-3" d="M346.8,13.88c.05.06.11.12.16.19l-.15-.2c.25.33.46.69.64,1.06.06.12.15.21.26.28.1.09.21.15.34.18.13.04.26.05.4.02.13,0,.25-.05.37-.12.21-.14.4-.34.46-.59l.04-.26c0-.18-.05-.35-.14-.5-.26-.52-.57-1.01-.95-1.45-.09-.1-.2-.16-.32-.2-.12-.06-.25-.09-.38-.09-.14,0-.26.02-.38.09-.12.04-.23.11-.32.2-.17.19-.3.44-.29.7l.04.26c.05.17.13.31.25.44h0Z"/>
    <g>
      <path class="cls-3" d="M355.08,27.82c-.05-.09-.09-.19-.13-.29l.1.24c-.11-.28-.2-.56-.24-.86l.04.26c-.02-.16-.02-.32,0-.48l-.04.26c.02-.11.04-.21.08-.31l-.1.24c.03-.07.07-.14.12-.21l-.15.2c.05-.06.1-.11.16-.16l-.2.15c.08-.06.16-.1.24-.14l-.24.1c.13-.05.27-.09.41-.1l-.26.04c.1-.01.21-.01.31,0l-.26-.04c.08.01.16.03.24.06l-.24-.1c.07.03.13.07.2.11l-.2-.15c.06.05.11.1.16.16l-.15-.2c.06.07.1.15.14.24l-.1-.24c.06.14.09.28.11.43l-.04-.26c.03.21.02.42,0,.63l.04-.26c-.03.19-.07.37-.14.55-.08.23-.02.56.1.76s.36.4.59.46c.25.06.54.05.76-.1s.36-.34.46-.59c.39-1.05.26-2.61-.83-3.2-.32-.18-.7-.27-1.07-.24-.4.03-.8.12-1.14.34-.62.4-.95,1.08-.94,1.82,0,.66.23,1.31.53,1.89.11.21.37.39.59.46.24.07.55.04.76-.1.47-.3.61-.86.36-1.36h0Z"/>
      <path class="cls-3" d="M351.82,28.37c.79.13,1.54.03,2.33-.06.35-.04.7-.07,1.05-.04.03,0,.18.02.03,0s0,0,.03,0c.08.02.17.03.25.06.04.01.08.03.12.04.12.03-.17-.09-.06-.03.09.05.18.09.26.14.44.28,1.11.11,1.36-.36.26-.49.11-1.06-.36-1.36-.74-.47-1.63-.55-2.48-.47-.37.04-.73.09-1.1.13-.17.02-.35.03-.53.03-.1,0-.19,0-.29,0-.04,0-.08,0-.13,0-.13,0,.26.04.04,0-.27-.04-.52-.04-.76.1-.21.12-.4.36-.46.59-.11.48.15,1.13.69,1.22h0Z"/>
    </g>
  </g>
  <path class="cls-3" d="M178.99,104.83c25.06,4.98,50.91,2.26,74.99-5.92,24.29-8.25,46.66-21.56,66.72-37.43,11.15-8.82,21.62-18.5,31.36-28.85.87-.93-.53-2.33-1.4-1.4-17.26,18.35-36.83,34.68-58.47,47.62-21.5,12.85-45.36,22.46-70.34,25.52-14.09,1.73-28.4,1.32-42.33-1.45-1.25-.25-1.78,1.66-.53,1.91h0Z"/>
  <path class="cls-3" d="M339.32,14.42c-32.28,2.58-64.52,5.72-96.77,8.67-14.09,1.29-28.17,2.52-42.27,3.59-11.7.89-23.47,1.95-34.88,4.78-12.45,3.09-24.47,8.51-33.44,17.91-.88.92.52,2.33,1.4,1.4,16.37-17.16,41.65-20.1,64.06-21.88,29.46-2.34,58.87-5.1,88.29-7.81,17.86-1.65,35.73-3.25,53.61-4.68,1.26-.1,1.27-2.08,0-1.98h0Z"/>
  <path class="cls-3" d="M162.17,93.13c5.41,4.02,10.92,7.9,16.54,11.62,1.07.71,2.06-1.01,1-1.71-5.62-3.72-11.13-7.6-16.54-11.62-1.02-.76-2.01.96-1,1.71h0Z"/>
  <path class="cls-3" d="M127.5,64.51c5.49,4.99,11.09,9.85,16.81,14.59.98.81,2.38-.59,1.4-1.4-5.71-4.73-11.32-9.6-16.81-14.59-.94-.86-2.35.54-1.4,1.4h0Z"/>
</svg>