<?xml version="1.0" encoding="UTF-8"?>
<svg id="Ebene_1" data-name="Ebene 1" xmlns="http://www.w3.org/2000/svg" viewBox="0 0 149.66 204.47">
  <defs>
    <style>
      .cls-1 {
        fill: #fff;
      }

      .cls-1, .cls-2 {
        stroke: #1d1d1b;
        stroke-linecap: round;
        stroke-linejoin: round;
        stroke-width: .95px;
      }
    </style>
  </defs>
  <path class="cls-1" d="M12.93,115.67c.98-.37-2.21,4.06-2.37,4.01-.42-.96,1.18-3.56,2.37-4.01Z"/>
  <g>
    <path class="cls-2" d="M139.31,105.45c-1.9,5.54-9.28,16.22-12.18,21.43l-4.47,5.29c.27,10.62.88,12.08-2.31,22.18-.58,1.84-.83,3.55-1.49,5.37-1.11,3.02-2.28,6.42-3.53,9.33-1.19,2.77-3.06,4.76-4.64,7.31-3.34,5.37-7.55,10.01-13.64,12.52-3.5,3.44-7.94,5.4-12.39,7.48l-10.51,4.9c-8.99,1.51-19.12,4.38-28.05,1.53-4.46-1.59-9.44-1.91-13.41-4.65-3.67-2.5-9.24-6.19-12.22-9.41-2.7-2.54-5.59-4.74-7.78-7.8-6.8-3.99-8.4-11.08-9.95-18.32-.6-2.79-2.08-5.61-2.17-8.5-.18-5.68-.21-10.79,1.04-16.14l1.62-6.96c.35-1.5.52-2.77,1.23-4.13,1.39-2.67,2.32-5.65,4-8.16l3.83-5.7c3.67-5.47,9.96-9.57,13.36-14.07,2.33-2.89,7.73-5.67,11.21-7.33l8.34-3.79c5.75-2.61,4.64-1.14,8.93-3.13-1.68-.18-1.48-1.6-1.65-2.67-.51-3.25.48-5.75,1.23-8.78l2.92-11.89c.44-1.8.28-2.98-.03-4.62s2.25-1.02,3.21-1.22c3.8-.8,8.02-1.59,12.11-1.92,2.72-.22,5.15-1.72,6.62-.04,1.44,1.65.24-4.95,4.06-9.04.53-.57,1.88-.82,2.63-1.26-.34-3.53,3.06-5.7,5.69-7.06,4.67-2.42,7.87-5.53,13.22-4.17.38.1.35,1.3.04,1.49-1.16.7-6.82,3.69-8.37,3.85-1.65.17-2.64.2-4.03,1.12-2.36,1.57-4.49,3.61-3.76,6.6.43,1.76,1.02,2.9,2.47,4,3.22,2.45,9.82,4.72,13.7,6.07,2.14.74,3.74-.18,5.77-.02,4.58.35,8.84.52,13.48-.28l4.61-.8c7.94-1.38,10.26-6.2,13.23-4.47.24.14-.04,1.08-.31,1.24-10.45,5.93-7.1,5.01-19.37,6.98-1.5.24-3.02.74-4.59.55-4.28-.51-8.65.6-12.82-.36-4.93-1.27-9.82-3.41-14.2-5.98-4.35-2.3-3.27-5.64-5.77-5.26s-.83,5.52-1.81,7.43c-1.04,2.04-1.8,3.7-.45,6.12l2.27-.87c.34.9.1,2.46.68,3.11.98,1.1,1.98,2.65,3.11,3.43,2.15,1.47,4.49,2.37,6.38,4.22,1.23,1.21,2.86,1.57,4.36,2.23,3.9,1.72,7.73,2.07,11.92,2.39,3.95.3,7.38-.39,11.3-.83,4.04-.5,9.43-.52,12.85-3.08,2.12-1.34,4.23.23,10.24-4.7,1.47-1.21,1.24-3.49,1.72-5.06,1.88-6.2-.93-5.79-.46-12.95.03-.51.86-.91,1.37-.85s.8.82.72,1.47c-.84,6.87,2.21,2.94-.2,14.67-.3,1.46-.91,2.59-1.97,3.53,2.13.65,2.41,5.68,2.35,6.12-1.14,8.39-3.6,7.6-3.76,11.1-.09,1.96-1.42,8.84-2.13,10.99l-3.42,10.27ZM70.09,75.31c1.3,1.09,2.44,1.78,4.16,1.52l8.66-1.31c2.92-.44,6.08-1.37,8.95-.96.41.06,1.32-.73,1.1-.98-.19-.22-.66-.55-.98-.69-3.57-1.53-5.84-4.44-8.72-6.84-2.6-2.15-5.1-4.52-4.63-8.24.16-1.24.42-2.5.44-3.97-.67,1.61-1.57,1.62-3.01,1.93l-7.57,1.64c-2.43.53-8.76-.45-8.52,1.1.18,1.13-.83,2.81-.49,3.62,1.05,2.43,2.67,5.5,4.19,7.7s4.25,3.65,6.42,5.46ZM119.82,134.26c-2.27,2.85-8.81,4.09-6.9,6.12.63.66.3,1.65.41,2.34.67,3.55-.52,9.43-.81,13.03-.33,2.95-2.34,5.45-3.35,8.14-2.91,7.71-6.78,10.62-12.64,15.98-3.08,2.82-6.02,5.14-9.93,6.82s-9.76,6.25-11.91,6.48l-3.83.41c-2.36.25-10.11,2.49-12.02,2.49-12.83.82-19.82-2.76-29.57-10.58-2.68-2.02-4.73-4.27-6.27-7.28l-1.97-3.85c-2.85-5.78-4.61-11.27-4.94-17.75-.66-7.44,1.07-14.08,4.74-20.51,1.78-3.12,2.79-6.9,5.5-9.54,2.64-2.58,5.43-4.91,7.91-7.63,3.77-4.14,12.69-7.98,18.19-9.04,2.58-.5,5.01-1.46,7.48-2.21,1.55-.47,2.45-.4,2.9-2.26,1.61-6.52,3.75-15.69,5.04-22.24.33-1.58.19-3.41,1.01-4.84.66-1.15-4.23-3.17-6.79-6.39-.94-1.18-1.39-2.73-2.78-3.51-1.52,2.6-1.79,5.46-2.73,8.13-.94,2.69-1.71,5.29-1.47,8.21,1.73-.05,11.22-1.18,11.16,1.55-.02.87-1.23,1.28-2.01,1.38-1.72.24-.9-2.46-9.25-.29-13.07,2.31-26.1,9.97-33.82,20.78-.83,1.35-2.69,2.23-3.32,3.7-.8,1.87-1.76,3.17-2.93,4.79-3.26,4.51-4.15,8.19-7.43,12.14l-3.54,11.63c-.63,2.05-.28,4.24-.45,6.29-.32,5.32.6,10.29,1.58,15.51,1.16,4.01,2.92,7.84,5.04,11.52,3.11,5.4,7.49,9.6,12.1,13.71,2.69,2.4,5.31,4.49,8.4,6.39,1.47.9,2.59,2.48,4.28,3.07,3.98,1.63,10.29,3.21,14.5,4.34,3.4.91,7.31.67,10.83.12l10.72-1.67c1.82-.28,2.93-.56,4.48-1.45,4.81-2.73,14.31-5.63,17.5-8.6,5.38-5.02,8.74-3.97,13.68-11.01l4.73-6.74c3.58-5.28,5.17-12.69,7.3-18.7l1.86-7.97c.53-2.29.22-4.71.36-7.05.09-1.43.26-3.02-1.02-3.98ZM60.18,141.16l-1.95,6.09c-.13.42,1.4.7,1.47.32.14-.87.44-1.94,1.39-1.73,5.98,1.34,4.06.03,7.29,6.06.81,1.52.47,3.5.35,5.15,4.87.33,9.31-2.25,13.02-5.15,0,0,10.83-6.59,10.83-6.59,1.94-1.18,3.53-2.67,5.43-3.9,1.83-1.05,3.05-1.71,4.51-1.99,2.06-.3,4.36-.41,6.23-1.26,11.23-5.13,4.54-2.23,9.64-7.1,1.19-1.14,1.91-2.02,3.41-2.83,4.58-2.5,9.66-13.17,11.86-18.07,1.32-2.95,2.26-6.05,3.74-8.9,1.02-1.96,1.49-3.59,1.98-5.72,1.46-6.22,3.98-18.37,6.24-24.32-1.1-.24-2.03.46-3.03.94-4.28,2.06-8.82,2.95-13.39,4.01l-10.75,2.49c-1.18.27-3.12-.27-4.1.24-2.36,1.24-4,.1-6.19-.17-3.46-.44-10.77-1.33-14.2-1.69-2.7-.3-5.61,1.24-8.39,1.46-3.03.24-5.99-.49-8.92.06-1.98.37-3.88,1.46-5.87,1.63-1.07,4.86-4.71,22.3-5.79,27.47-.5,2.4-1.49,4.45-1.63,7.02M113.6,76.65c-1.46-.23-2.52-.25-3.77-.13,1.07,1.13,2.71,1.22,3.77.13ZM107.25,148.29c.09,2.7-.95,5.01-1.44,7.48-.86,4.3-2.9,7.44-5.19,10.97-3.51,5.42-7.6,10.12-13.51,13.03-6.87,3.37-13.39,5.41-20.89,6.86-1.96.38-3.47.06-5.34.08-4.1.03-8.22,1.03-12.32.14-13.86-3.03-20.9-15.77-21.77-29.06-1.7-8.48-.54-15.37,4.45-22.36,2.76-3.92,6.28-8.83,9.58-12.26,1.78-2.02,4.07-2.68,6.25-3.92,4.31-2.22,8.23-5.29,13.37-4.57,1.04.13,1.74-2.82.77-3.24-1.65-.71-3.39.09-4.98.48-5.66.36-10.84,3-15.83,5.47-3.98,2.09-6.28,5.59-9.14,8.85-3.09,3.53-5.99,6.93-7.75,11.49-2.37,5.84-5.31,11.5-5.2,18.01-.25,2.29,1.71,6.93,1.62,9.51l1.77,1.92c-.15,1.21-.61,2.62.07,3.59.93,1.32,1.34,2.7,2.16,4.04,1.66,2.72,3.59,5.75,6.17,7.64l5.49,4.04c5.67,4.17,14.19,7.18,21.06,6.29,5.06-.66,10.28-.55,15.02-2.73,3.7-1.7,7.21-3.12,11.07-4.5,8.69-3.1,10.64-5.88,16.49-11.94,3.68-3.81,7.87-9.83,9.63-14.89.65-1.86.74-3.57,1.13-5.64.11-.6.35-1.06.54-1.97.04-.78.21-1.48.27-1.96.16-1.26.64-8.23-1-8.69-.69-.19-2.67-.12-3.24.55-.26.3-.32,1.49.07,1.5M12.93,115.67c-1.19.45-2.79,3.05-2.37,4.01.16.04,3.35-4.39,2.37-4.01ZM103.55,142.41c-2.79.86-4.34,3.14-6.48,4.45-1.84,1.13-3.48,2.05-5.19,3.28s-4.17,1.64-6.04,2.74c-2.07,1.22-4.06,2.23-6.18,3.33-1.3.68-2.38,1.86-3.89,2.19-2.13.47-5.09.15-6.39,1.73l-2.47,3.01c-4.45-1.62-3.12.73-8.86-1.48-1.24-.48-3.25.26-4.1-1.27-2.24-4.04-.39-6.54-.7-7.93-.6-2.7,1.26-4.34,1.72-6.61l1.84-8.86c.43-2.06.33-4.15,1.09-6.24.85-2.35.88-4.75,1.36-7.13l1.22-5.97c-3.96-.56-7.35,1.14-10.7,2.73-3.59,1.71-6.24,3.86-8.98,6.7-5.85,6.08-7.94,9.47-10.65,17.6-.86,2.59-1.39,4.54-1.17,7.42l.53,6.82c.5,6.46,2.33,12.76,7.09,17.35,1.58,2.69,4.14,4.96,7.28,5.77l7.14,1.84c3.7.95,7.5.18,11.23.25,3.24.07,5.92-.49,8.99-1.3,3.52-.93,6.93-1.63,10.24-3.22,10.06-4.83,5.17-3.75,12.97-8.71,1.62-1.03,2.15-3.17,3.27-4.58,3.27-4.15,4.37-7.9,5.37-13.2.43-3.37,2.18-7.47.45-10.74ZM64.9,160.5c-.67-.35-1.33-.67-1.53-1.06-.33-.97,1.3-2.21,1.81-2.87l-1.77-.79c1.39-1.15-.13-2.88.16-6.31-1.78.23-3.71-.05-5.37.59-1.13.44-1.88,2.66-1.77,3.72.18,1.7,2.53,2.15,3.63,2.41.26.06-.43,1.2-.16,1.24l1.18.16c.44.06,1.05.16,1.46.25.16.03.38,1.38-.83,1.64l-.79.17c-.16.04-.12.78.04.83.98.29,2.98.3,3.93.02ZM65.8,156.06c1.1-.94.49-1.94-.02-2.76-.32.86-.42,1.89.02,2.76ZM56.9,159.35c-.55-.92-.35-1.84-.06-2.61.17-.45-.94-.78-1.39-.65-.77.24-.25,2.26.19,3.18.14.3,1.1.28,1.26.08Z"/>
    <path d="M125.6,39.66c-.6,1.04-2.06,2.42-3.3,2.29-1.08-.11.25-4.6-1.96-3.43-2.52,1.32-5.38,2.09-8.45,2.35,1.69,2.45,3.87-.69,7.31.35.34.1-.03,1.11-.34,1.27l-1.62.84,2.81.51c.55,2.86-7.41,1.91-8,1.74-1.04-.3-2.98-1.43-3.57-2.31-.71-1.06-1.29-3.25-1.31-4.46l-.12-7.33.26-8.87c.15-5.15-2.53-11.92.42-17.9,1.21-2.44,7.88-6.95,13.09-3.37,1.94,1.33,3.22,3.97,3.03,6.7-.12,4.08.32,9.81.29,13.94-.25,2.83-.53,6.11-.35,9.05,1.91-1.94,3.58-2.1,5.72-1.24,4.11,1.61,8.47,2.83,11.64,6.05,3.43,2.38,4.78,2.6,3.43,10.36-.13.72-1.63.43-1.94-.07-1.08-1.71,2.16-5.75-2.3-7.89l-12.99-6.23c-1.07-.51-2.68.58-3.51-1.36-.76,4.74-.84,3.58,0,7.98.07.39,1.15.67,1.75,1.03ZM120.94,6.79c.22-.25.18-1.05.03-1.44-1.44-3.88-7.88-3.53-10.02-.48-.59.91.59,1.39,1.11,1.8,3.61,2.91,8.25.83,8.88.12ZM119.9,22.62c-5.63,4.47-9.97.95-9.41.89-.3.03-.7.4-.67.67.29,2.7,8.94,1.78,11.58-.61,1.35-1.22.03-3.85.15-5.25.17-1.99.54-3.7-.1-5.65-3.12,2.4-10.31,3.22-11.2-.48-.07-.3.86-.27,1.16-.11,4.95,2.65,3.99,1.04,10.03-.45.7-.17.56-2.69-.16-2.63l-7.49.67-4.08-2.18c3.77,5.78,9.64,1.14,9.35,2.74-.25,1.41-4.88,2.34-7.13,1.03-.79-.46-1.27-1.27-2.43-1.25-.16,1.27-.77,3.27.04,4.43,2.09,2.82,6.64,1.85,9.62,1.75-.38,1.52-1.96,1.83-3.16,1.59-.38-.07-1.34.32-1.73.2l-4.77-1.47c-.35-.11-.52,1.23-.24,1.44l1.14.84c3.65,2.69,5.49-.67,9.64.3-2.69,3.01-7.25,1.96-10.75,1.66,5.4,6.74,8.26-.75,10.62,1.87ZM114.95,33.62c1.29.05,2.79-1.25,3.87-.34.48.4-.95,1.38-1.61,1.41l-6.71.32c2.44,3.31,8.06.47,10.65-.32l.18-3.8c.08-1.61.49-4.54.28-4.64s-.71-.15-.81.05c-1.81,3.3-7.16,3.87-10.33,2.08-.18-.1-.5.56-.35.73,2.08,2.31,6.76,2.53,9.01.3.25-.25,1.2-.2,1.47-.12s.44.64.39.92c-.04.22-.42.64-.68.72-4.88,1.54-2.14,1.74-9.16.81-.28-.04-.91-.61-.97-.34l-.31,1.3c1.67.28,3.23.85,5.1.92ZM116.7,26.81c-1.32.09-2.71.4-4.06.85,1.37.95,3.05.76,4.06-.85ZM114.23,39.19l5.96-1.68c.2-.06.97.1.95-.11l-.07-.84c-.07-.83-3.78,1.45-7.18,1.4-.98-.02-2.13-.47-3.09-.6.18,1.52,1.78,2.29,3.43,1.82Z"/>
  </g>
</svg>