<?xml version="1.0" encoding="UTF-8"?>
<svg id="Ebene_1" data-name="Ebene 1" xmlns="http://www.w3.org/2000/svg" viewBox="0 0 257.71 207.22">
  <defs>
    <style>
      .cls-1 {
        fill: #1d1d1b;
      }
    </style>
  </defs>
  <path class="cls-1" d="M4.63,167.66c18.54,2.02,40.4-6.34,48-24.5,3.77-9.01,1.94-18.48.66-27.83-1.41-10.26-3.25-21.01-1.55-31.35,3.67-22.25,27.95-34.42,48.7-36.07,9.86-.79,23.4-.02,29.07,9.38,5.08,8.43,3.71,18.64-.88,26.95-5.45,9.87-14.85,16.27-24.35,21.86-9.71,5.71-20.4,9.9-31.73,10.67-20.76,1.42-47.8-8.54-53.53-30.78-5.41-20.98,8.49-39.39,24.69-50.83,14.61-10.32,32.17-20.83,49.96-24.29,17.65-3.44,38.46-.07,53.06,10.8,16.36,12.18,19.18,34.87,9.77,52.28-10.2,18.87-28.48,31.39-42.6,47.01-14.9,16.48-25.05,36.93-19.5,59.48,2.41,9.78,7.54,18.46,16.92,22.82,9.19,4.27,19.72,4.7,29.6,3.11,10.33-1.66,19.17-6.19,26.8-13.32s15.36-16.24,20.09-25.64c10.08-20.05,6.4-42.49-3.63-61.85-4.97-9.59-14.29-17.08-23.43-22.61s-19.45-6.24-29.99-4.85c-18.17,2.41-41.63,13.4-41.73,34.72-.04,9.16,4.33,18.14,10.8,24.49,7.71,7.56,18.48,10.67,29.11,10.47,22.57-.43,43.99-13.03,61.94-25.64s35.01-28.67,48.72-46.67c6.55-8.6,12.38-17.69,17.47-27.22,2.94-5.51-5.43-10.41-8.38-4.9-10.62,19.89-24.56,37.7-41.13,52.98-16.41,15.13-35.94,29.35-57.03,37.13-10.6,3.91-22.48,6.46-33.56,3.05-9.31-2.87-16.92-11.33-18.11-21.15-2.68-21.97,30.56-30.42,46.98-27.96,5.12.77,9.68,3.48,13.81,6.47,4.56,3.3,9.62,6.9,13.02,11.44,3.08,4.1,5,8.97,6.72,13.76,2,5.57,4.04,11.16,4.7,17.08,1.27,11.31-1.69,22.49-7.89,31.96-5.43,8.29-12.83,17.21-21.11,22.75-8.74,5.86-20.27,7.76-30.61,6.25-11.42-1.67-18-8.15-20.72-19.26-5.69-23.24,9.04-42.87,24.91-58.13,14.5-13.94,31.13-27.84,39.03-46.88,7.42-17.88,4.39-40.19-9.56-54.09C145.44,6.1,126.61.52,109.04.03s-34.22,5.97-49.98,14.39c-17.34,9.26-36.28,20.91-45.15,39.22s-7.62,39.45,6.79,54.04c15.62,15.82,38.96,21.58,60.48,17.71,10.93-1.97,21.25-6.67,30.63-12.51,8.77-5.46,17.08-11.52,22.97-20.15,10.33-15.13,11.62-40.12-6.82-49.93-18.49-9.84-43.6-4-60.78,5.84-9.2,5.27-17.23,12.24-21.58,22.09-4.04,9.16-4.63,19.29-3.87,29.16s3.01,19.91,3.53,29.94c.48,9.19-4.69,16.9-12.2,21.83-8.45,5.54-18.48,7.38-28.43,6.3-6.2-.68-6.15,9.03,0,9.7h0Z"/>
</svg>