<?xml version="1.0" encoding="UTF-8"?>
<svg id="Ebene_1" data-name="Ebene 1" xmlns="http://www.w3.org/2000/svg" viewBox="0 0 193.84 229.58">
  <defs>
    <style>
      .cls-1 {
        stroke: #1d1d1b;
        stroke-linecap: round;
        stroke-linejoin: round;
        stroke-width: 1.44px;
      }
    </style>
  </defs>
  <path class="cls-1" d="M138.68,51.33c-2.92-12.26-7.97-22.41-17.78-29.78-5.13-3.85-10.29-4.42-16.4-5.85-21.69-5.09-43.38-6.52-65.11-9.06C14.35,3.71,5.01,27.93,2.28,48.33c3.71,1.17,8.61,3.42,12.17,1.9,6.57-2.79,5.31-22.06,17.7-22.61-10.89,6.47-9.16,12.6-14.44,22.59,9.95,1.42,20.35-4.62,23.56,3.32,5.43,13.42,1.14,23.21,8.41,35.98,12.1.69,6.17,6.04,18.4-.51,6.58-3.52,17.03-1.85,22.47,3.16,4.41,4.06-.56,16.55,8.83,15.31,9.99-1.31,20.43-3.45,28.6,2.2,2.75-8,1.92-16.09.9-24.41-1.66-13.53-5.25-27.47-13.16-38.02-5.29-7.05-11.21-8.78-18.63-10.55-10.61-2.53-20.62-5.86-31.9-5.44-1.81.07-4.17-.99-5.79.44-1.07.94-2.18,2.85-2.8,4.72-5.34,16.32-2.2,39.26,6.86,54.39-4.44-2.17-5.23-6.51-6.57-10.6-4.75-14.41-7.53-37.75,1.4-49.84l-19.33-4.27c9.65-1.41,17.67,3.48,26.78,3.45,11.46-.04,21.9,2.9,32.52,5.78,6.44,1.75,11.15,2.1,15.72,7.55,3.57,4.25,6.85,8.35,9.2,14.11,5.79,14.21,8.85,30.3,7.82,45.62-.65,9.7-3.85,17.23-9.21,24.67-5.86,8.14-15.38,10.97-24.84,6.47-5.73-2.73-12.01-2.74-18.02-3.93-9.23-1.82-16.9-.65-25.69.19-11.27,1.07-18.47,7.97-22.58,19.51.35-10.84,10-19.25,20.27-20.61,4.16-.55,8.29-1.53,12.37-1.67,9.7-.35,19.63,1.24,28.99,3.46,10.75,2.56,19.11,7.23,26.29-2.48,3.1-4.18,9.83-10.51,8.51-16.33-9.84-11-28.34,2.6-35.39-6.48l-1.08,6.18-10.16,1.82c-3.15-4.49-8.74-1.76-12.76-4.3,3.45,11.02-17.48,4.34-21.62,3.34-4.5-1.09-12.67-4.3-12.58-8.44.02-.94,2.18-1.51,3.24-1.97-6.45-1.61-14.31-23.84-13.13-29.21,1.8,3.28,9.53,35.01,16.18,25.72,2.05-2.87-3.93-10.36-2.43-13.45,2.13,3.97,3.49,7.92,4.9,12.31l6.37-7.45c-4.49-6.11-4.7-13.29-5.76-20.42l-1.65-11.05c-.33-2.24-2.06-7.19-4.47-7.53l-18.11,1.21c-6.12.41-12.37.47-17.93-2.87.05-8.04,3.04-15.28,5.32-22.53,1.46-4.64,3.05-7.82,6.56-11.23,4.49-4.35,8.9-8.49,15.26-10.53,20.53-7.08,40.35-3.64,61.24-1.63,12.31,1.19,23.89,2.81,36.22,4.61,16.26,2.38,22.72-3.66,38.48,9.38,5.27,4.36,9.55,8.07,12.9,14.3,19.05,29.62,22.17,66.46,5.97,98.48-4.69,9.47-14.12,14.87-22.87,20.9l-.37,40.35c-.01,1.38,1.02,4.06.09,4.82-1,.81-3.83,1.4-5.44,1.89-2.55,6.58,2.07,15.65-3.49,19.52-2.51,1.74-3.85-.09-6.42-1.14l-17-6.97c-8.41-3.45-3.08-11.86-5.14-19.27l-11.8,3.26-.44,31.51c-1.78,2.54-7.91,4.93-10.55,3.38-8.19-4.83-16.04-9.89-25.78-10.41-21.49-1.16-40.83,9.68-43.76,1.4-1.6-4.51.28-9.78-.37-15.08-11.94-.09-13.29,6.24-21.12,1.68-3.8-2.21-2.9-5.33-3.07-9.46-.83-20.66-2.63-41.11-.38-61.75.92-8.47,8.45-13.65,15.73-17.05-10.24-12.34-16.69-27.77-16.11-44.02.16-4.43,6.39-5.47,9.5-4.19,3.68,1.52,6.91-.71,10.8,2.27-5.75,3.36-12.64,5.71-18.91,5.03.82,15.96,7.44,29.53,17.15,41.85-7.11,2.8-15.52,7.25-16.47,15.91-2.51,22.81-.57,45.92,1.06,69.37,2.46-9.66.25-19.03.21-28.65l-.13-32.89c3.16-.51,4.64,1.72,6.9,2.82l14.41,7.01c1.09,18.87,1.88,47.74,2.2,66.67,1.28,2.68,7.25,2.23,10.21,1.54,25.04-5.84,36.9-8.02,58.82,6.56,2.18.82,6.05-1.14,8.17-2.19l-.2-29.69c-.07-10.79,3.14-30.63.09-36.22l-4.98-1.8c-1.18-.43-1.92-3.19-1.56-4.71l3.25,4.09c.6.75,2.7-.33,3.77.24,4.92,2.65,10.84.59,15.95-.67,10.21-2.51,20.39-1.83,30.51-5.47,31.8-10.88,39.25-49.57,35.21-79.09-1.81-15.18-8.43-28.01-16.08-40.54-3.3-5.41-7.23-8.68-12.04-12.61-15.1-12.35-21.21-6.22-36.81-8.6-18.55-3.04-39.25-4.99-58.01-6.76-7.62-.73-20.4-1.54-27.87,1.23,1.29.47,3.68,1.72,5.26,1.79,20.13.83,39.35,3.85,59.03,8.05,5.83,1.24,12.21,1.63,16.62,4.96,10.79,8.13,16.63,18.13,19.55,30.79,2.41,10.48,7.79,20.35,7.58,31.28l-.46,23.46c-.09,4.5-1.68,9.83-3.42,14.17.95-11.82,2.69-24.6,2.31-36.35-.37-10.78-4.77-20.43-7.29-31ZM20.49,72.22c-5.39-.59-11.93-3.29-13.87.59-2.69,5.39,12.44.4,13.87-.59ZM81.74,109.76c.1-3.78.34-12.79.43-16.47-6.18-5-10.62-5.91-17.64-.23,5.34.81,3.05,13.88,4.28,12.03l-1.46,2.2c4.38,1.15,9.4,2.31,14.39,2.47ZM89.28,109.52l.88-10.1,1.39,4.2c-.05-3.47-.14-7.9-2.17-10.55-2.23-2.91-6.77-3.07-9.85-4l4.19,3.09c.81.6-.51,3.4-.41,4.39.06.62,1.67,1.62,1.53,2.22s-1.11,1.84-1.08,2.46c.11,1.93.51,7.89-1.1,9.99,1.12.14,5.7-.26,6.62-1.71ZM66.81,104.74l-.7-2c-.64-1.82,1.1-6.8-1.18-7.49l-12.19-3.69,4.82,2.65c3.33,5.83,2.84,11.96,3.29,18.51.11,1.55,4.31.4,4.71-1.12-.04.14.57-8.81,1.26-6.85ZM45.18,110.41l13.74,3.63c2.18-7.16-1.9-24.62-9.39-21.37-8.2,3.57-3.09,8.7-10.91,9.45l-3.31,2.87c2.75,2.73,6.04,4.4,9.87,5.41ZM29.22,201.95c-1.45-19.15-.02-31.28-2.09-48.84l-17.78-9.19c-.87,5.29.1,10.67-.18,15.79-1.11,20.26,1.91,25.14.53,42.71-.08.97,1.16,3.23,2.18,3.49l17.34-3.95ZM153.48,195.82c.08,1.1,4.54.16,4.53-.96l-.19-42.11c0-1.22-4.23-.04-4.22,1.28l.15,23c.04,6.08-.76,12.17-.27,18.78ZM148.08,216.66c2.13-1.17,3.6-2.92,3.62-4.81l.48-55.31c0-.9-.54-3.31-1.18-3.08l-2.74,1c-.52.19.86,1.71.95,2.27.7,8.26-.53,16.52-.65,24.92l-.49,35.01ZM126.18,206.82c6.36,3.84,13.28,5.71,20.06,8.11l.73-36.5c.16-8.12-.52-15.87-.75-24.05l-20.94,3.07-.2,20.4-.64,18.73c-.1,2.87-1.54,8.25,1.75,10.23ZM122.12,188.12c.83-10.47,1.8-19.97,1.07-29.87-4.32,1.12-7.71,1.18-11.58.94l-1.77,31.6,12.28-2.67Z"/>
  <path class="cls-1" d="M33.79,54.1l2.95,27.59c-4.2-9.1-2.42-18.46-4.86-27.45-.1-.36-.24-1.4-.28-1.78-.04-.35,1.04-.52,1.25-.23s.9,1.43.94,1.86Z"/>
  <path class="cls-1" d="M38.01,215.65c-1.3-14.49.51-15.13-.82-30.95-.5-5.97-3.32-40.38,3.31-42-7.93,20.68,1.74,50.46-2.5,72.95Z"/>
  <path class="cls-1" d="M99.37,216.85c-2.34-4.75-1.25-10.16-.69-15.24.99-8.95-1.37-17.59,1.52-26.76.96,13.02-.12,28.88-.83,42Z"/>
  <path class="cls-1" d="M133.78,143.26c-5.86,2.87-11.3,7.36-18.47,7.15,13.66-4.81,16.83-4.82,23.95-18.59l-.88,4.99c5.17-7.05,7.18-13.53,8.35-21.79,2.31,9.19-9.21,27.93-15.73,34.1l-1.05-.71c-.21-.14-.67.55-.95.84l-.87.9c-.25.26-1.22-.54-1.04-.86,2.17-3.83,4.92-1.23,6.71-6.04Z"/>
  <path class="cls-1" d="M100.14,172.26c-1.26-5.06-1.14-9.82-.09-15.01,1.01,5.16.92,9.83.09,15.01Z"/>
  <path class="cls-1" d="M46.7,137.82c.31-1.3,1.91-2.46,3.74-2.4-1.01.86-1.66,1.3-3.74,2.4Z"/>
</svg>