<?xml version="1.0" encoding="UTF-8"?>
<svg id="Ebene_1" data-name="Ebene 1" xmlns="http://www.w3.org/2000/svg" viewBox="0 0 261.74 270.17">
  <defs>
    <style>
      .cls-1, .cls-2 {
        stroke: #1d1d1b;
        stroke-linecap: round;
        stroke-linejoin: round;
        stroke-width: .84px;
      }

      .cls-2 {
        fill: none;
      }
    </style>
  </defs>
  <path class="cls-1" d="M171.73,235.49c-3.53-4.93-8.36-7.2-13.64-10.51-5.69-3.57-10.71-5.32-16.29-7.42-6.09-2.29-10.71-3.4-17.26-3.39-8.51.02-16.84.64-25.34,1.34-7.14.59-13.44.16-20.24,3.27-2.81,1.28-7.04,1.78-10.2,2.32l-20.85,3.59c-5.71.98-11.49.16-17.37.53-2.86.18-13.93-1.07-15.21-4.41l-8.38-21.8c-4.31-11.22-5.89-21.94-5.91-33.86-.14-13.37.38-29.39-.57-42.62-.6-7.1,3.94-13.02,11.18-13.97l14.86-1.96,21.39-1.32c9.96-1,28.35-4.02,38.14-4.12,5.02.05,9.03-2.15,11.53-6.69.53-13.42-.23-27.47-.22-41.03-.12-12.39-.96-24.74-.02-36.9.48-6.18,3.88-9.63,9.33-11.3,12.59-3.87,25.67-5.87,38.86-4.24,4.38.54,9.03.14,13.52.09,6.2-.07,16.89,1.4,22.8,3.17,15.61,4.68,29.35,3.96,37.64,17.88,3.55,5.97,4.38,11.97,5.22,18.57.68,5.35.99,10.2.3,15.6-1.14,8.8-.15,17.51-1.1,26.38l-3.45,32.32c-.55,5.14,1,8.32,4.09,11.97l15.51,18.33c2.57,3.04,4.7,6.16,7.93,8.64,7.55,5.79,11.95,14.38,12.07,24.12.03,2.76.66,5.83,1.26,8.49.19.83-.83,2.58-.86,3.42l-.5,12.39c-.24,5.87-.97,11.26-1.74,17.06-1.59,11.99-.45,31.47-3.38,40.18-2.63,7.83-19.86,8.29-26.21,9.1-10.03,1.28-20.72,1.86-30.53-.88-6.61-1.84-9.46-8.76-13.05-13.77l-13.27-18.54ZM90.96,213.77c2.84-.22,5.71-.3,8.7-.52,8.59-.63,16.83-1.38,25.41-1.31,5.64.04,9.94.83,15.21,2.39,14.07,4.17,24.92,8.26,33.7,20.23l11.5,15.68c3.9,5.31,6.52,14.68,15.9,15.65,7.95.82,15.84,1.3,23.81.61l11.43-.99c.61-.05,1.78-.12,2.74-.33,0,0,2.95-.59,4.03-.91,3.47-1.03,2.82-.5,5.72-2.44,3.24-2.17,2.84-6.26,3.67-9.48,1.9-5.86,3.02-36.8,3.59-43.56,1.14-13.51,3.2-27.79-.69-40.56-2.13-6.98-8.24-10.73-12.73-16.03l-20.69-24.44c-4.21-4.98-5.96-11.49-4.56-18.03,2.26-10.56,2.67-20.78,3.45-31.54,1.21-17.74,4.14-37.57-3.85-54.19-1.67-3.64-4.47-5.79-7.38-8.21-4.64-3.87-9.44-4.27-15.24-5.74l-11.55-2.92c-23.06-5.83-21.75-2.27-42.98-4.33-4.34-.42-8.55,1.23-12.84,1.48-7.23.42-14.2,1.04-20.92,3.63-4.04,1.55-6.4,4.32-6.81,8.88-1.03,11.6.27,23.06.35,34.83l.27,39.09c.02,2.79-.55,5.13-1.92,7.68l2.56.69c-1.97,2.09-4.13,3.16-6.8,3.42-13.1,1.5-34.72,2.72-47.38,5.24-7.23,1.54-14.01,1.47-21.34,1.45-5.09-.01-10.26,1.43-15.18,2.07-2.68.35-4.02,2.36-4.17,4.84-4.69,3.1-3.36,4.36-3.02,10.4,1.04-1.99,1.19-4.51,3-5.71,7.87-5.54,19.19-5.43,28.46-6.25l13.55-.2,31.94-2.59c6.04-.49,12.13-.57,17.4-3.86,7.42-4.63,4.81-22.2,4.88-29.87.04-4.13-.14-7.85-.28-11.98l-.87-25.75c-.22-6.38-2.58-26.76,9.71-28.63l22.54-3.44c6.24-.95,12.42-.86,18.74-1.14,8.24-.37,16.12,2.15,24.11,3.26,3.51.49,5.83,1.29,8.85,3.15,4.38,2.71,9.93,5.42,11.64,10.86s.51,10.98,1.23,16.35c.79,5.8.26,11.03.15,16.83l-.53,27.55c-.09,4.73-.64,9.4-.43,14.11l.88,20.02c-.26,10.2,5.29,14.29,11.46,21.43,5.66,6.79,10.43,13.9,16.81,19.87,4.21,3.93,8.26,7.76,8.28,14.13,0,20.42.47,41.77-1.45,62.08-.27,2.92-.21,4.61-1.54,6.04-1.55,1.66-6.55,2.25-10.42,3.17-12.52,3.09-29.31,5.77-35.48-8.26-5.59-11.03-11.67-20.74-19.56-30.13-7.98-4.76-16.51-9.12-25.94-10.05l-20.26-2.01c-3.74-.37-19.15.22-23.34.85-8.3,1.26-16.1,1.85-24.42,2.62-8.69.81-16.86,3.95-25.48,5.22-6.75.99-13.49.88-20.01,2.23-8.44,1.75-13.2-3.5-15.89-10.71-2.17-5.83-4.97-11.24-5.54-17.74-1.67,3.96-.79,8.09.72,11.87l6.45,16.14c1.79,4.48,2.69,10.25,7.05,13.21,4.03,2.73,11.08,4.25,15.67,3.29,2.97-.62,4-.74,6.67-.43,6.93.82,13.83-1.43,20.69-2.33,5.64-.74,11.23-1.25,16.45-3.36,4.11-1.66,8.07-2.25,12.1-2.56M230.94,231.95c.34-8.31.35-19.29.8-27.41.7-9.82.48-22.18-.8-31.99-.49-3.75-3.94-6.69-6.24-9.49-6.05-7.22-14.59-18.06-20.67-25.09-3.7-4.11-8.22-9.24-8.72-15.1-1.15-13.34-.43-26.3,0-39.68.39-12.04.45-23.41-.28-35.41-.79-13.03,4.89-23.38-10.43-31.53-5.11-2.72-27.42-8.03-33.23-5.34,4.89.61,8.92,1.2,13.32,2.48,3.19.93,7.06.79,9.53,3.22,1.71,1.69,3.23,3.45,5.72,3.63-1.16,2.72-1.65,5.18-1.47,7.92l.55,8.56c-.45,17.65-1.48,53.37-2.03,70.84-.2,6.62-.78,13.25-.25,19.83.63,7.82.73,14.87-.04,22.65-.88,8.94-.04,17.56,2.33,26.04.7,2.5,2.77,3.51,4.24,5.39l18.75,23.91c9.08,11.58,17,23.37,27.74,33.91.9-2.3,1.1-4.77,1.18-7.37ZM9.21,182l21.95-1.28c13.2-1.61,39.78-4.86,52.92-6.48,10.59-1.3,20.75-3.23,31.55-3.08,1.51-3.2,2.58-6.49,1.38-10.1,4.27-5.25,3.39-11.07,3.52-17.12l.92-41.91c-.37-16.16-1.43-37.64-1.05-53.57.27-10.41,1.46-20.33.81-30.82-.03-.56.36-1.96.79-2.29-.17.13,10.44-1.96,12.22-3.27-5.68-1.28-7.28,1.27-15.74.95-4.37-.16-9.4.92-12.23,4.65-2.53,3.32-3.01,8.08-2.89,12.29l.95,34.13c.27,9.75.87,18.75.76,28.58-.07,5.95-.92,13.6-6.61,17-9.63,5.64-22.59,4.55-33.32,5.44l-28.66,2.16c-6.82.51-13.53.24-20.16,1.53-13.76,2.67-9.61,17.52-9.45,31.22.14,12.18.32,19.83,2.34,31.99ZM151.59,14.07c-1.69-.11-3.17.08-4.79.5,1.52.5,3.4,1,4.79-.5ZM142.04,21.64l-8.24-2.27c2.76-3.76,6.7-2.48,10.88-4.08-6.19-.96-11.98-.71-17.94,1.96,4.35,2.58,11.28,7.07,15.3,4.39ZM163.91,21.52l10.55-1.06c-2.43-3.8-6.55-4.54-11.11-4.7.38,2.15-.56,3.26-2.92,4.25.64.64,2.42,1.62,3.49,1.51ZM159.19,17.27c-2.97-.81-6.04-1.37-8.6.67,2.75,1.29,5.9.42,8.6-.67ZM150,18.22c-2.97-1.75-5.86-.5-8.4.8,2.91.01,5.49-.25,8.4-.8ZM121.29,169.49c.27-.9,4.72,6.85,8.64,7.68,4.9-15.51,2.08-30.14,2.45-45.46l.37-15.15,1.38-23.5c.22-3.81-.58-7.4-.09-11.3.67-7.06.26-20.53.49-27.76l.79-8.89-.27-18c-.08-5.31-6.01-4.02-11.53-9-.2,7.83-.78,23.38-1.21,31.14-.33,19.63,2.92,44.59,1.77,64.21,0,0-.93,17.14-.93,17.14-.41,7.49,1.17,15.03-.47,22.35l-2.92,13c-.7,3.12-2.56,6.86,0,9.82l6.52,7.53c.98,1.13,2.24,1.91,3.75,1.72-.1-1.7.37-4.95-.88-6.05-1.9-1.67-8.97-5.7-7.85-9.47ZM146.96,119.83c.5,4.02-.16,7.79-.02,11.87l.92,26.85c.24,6.91.5,13.3-.72,20.15-.72,4-.76,8.31.88,12.21,11.4-2.71,19.63-.55,30.52-4.39.47-9.14-5.81-16.43-5.06-26.19,1.68-18.98.28-46.63,1.51-65.29.44-4.98.68-9.17.73-14.26l.44-46.24c.03-3.52,1.03-7.29-.02-10.47-.38-1.15-3.4-.5-4.56-.46-6.99.21-13.9.65-20.76,1.63-1.22,2.94-1.23,5.71-1.38,8.86-.24,4.93-1.08,9.68-1.17,14.69l-.7,41.81.24,12.9M132.81,187.08c4.13.97,7.62,2.4,11.83,4.09.23-3.79-.27-7.6.22-11.13.61-4.38.82-8.25.71-12.64l-.82-32.92c.36-33.81,1.6-75.8,1.85-109.7-2.63-.14-5.69-.09-9.01.2-.7,3.36.13,6.14.13,9.41.02,9.8-1.32,15.44-.71,24.53.61,9.03-.75,17.95-.94,27.06l-.42,20.28c-.3,8.24-.82,21.05.02,29.15.53,11.61.23,23.1-1.9,34.48-1.5,5.6-1.78,11.38-.97,17.18ZM3.47,131.12c.09-.93.09-1.75,0-2.72-.28.78-.28,1.73,0,2.72ZM3.9,139.44c0-.63-.95-.63-.96,0,0,.63.95.63.96,0ZM5.58,173.1l-1.28-19.6c-2.13-.69-.12,20.96,1.28,19.6ZM187.12,235.13c3.96,8.43,11.92,10.93,20.51,9.74l20.14-2.79c-7.51-8.1-13.38-16.01-19.8-24.17-5.04-6.4-9.69-12.56-14.18-19.35-3.68-5.57-7.92-10.19-12.81-15.35l.63,5.83c-8.28-.23-9.43,1.85-19.97,2.22-5.22.18-10.13,1.19-15.22,1.8-3.79.45-7.39-3-10.93-3.37-6.65-.69-11.38-3.72-14.99-9.19-1.59-2.4-4.35-4.24-5.29-7.25-12.07.13-23.17,2.96-34.94,4.35l-24.2,2.86c-5.17.61-9.42,1.84-14.85,1.75-9.67-.17-20.1,3.36-30.7,1.77.3,11.87,6.95,20.67,19.5,19.4,0,0,14.16-1.35,14.16-1.35,6.06-.58,11.29-2.3,17.35-3.57,20.67-4.32,41.74-5.74,62.87-5.31,14.34.29,27.51,3.98,40.16,10.27,10.27,8.46,16.56,20.07,22.57,31.73Z"/>
  <path class="cls-1" d="M169.44,183.32c-5.99,1.31-11.7,2.74-17.75,2.46,3.39-2.67,7.35-1.66,11-2.52,4.49-1.06,8.88-2.55,13.59-1.52-2.14,1.31-4.43,1.05-6.84,1.58Z"/>
  <path class="cls-1" d="M168.92,161.93c4.42-2.4,2.23,4.57-17.49,5.34-.33.01-.15-1.34.17-1.42,5.35-1.34,10.53-.23,17.32-3.92Z"/>
  <path class="cls-1" d="M131.37,160.81c-3.53-1.29-6.68-4.6-7.47-8.32,2.92,2.46,5.18,5.22,7.47,8.32Z"/>
  <path class="cls-1" d="M144.19,166.32h-7.01c-.35,0-.18-1.35.13-1.49l1.41-.59c1.93.43,3.71.76,5.47,2.08Z"/>
  <path class="cls-1" d="M141.95,183.97c-2,1.76-5.43,1.04-6.58-1.4,2.25.1,4.19.46,6.58,1.4Z"/>
  <path class="cls-2" d="M175.52,182.29c-.63.16-1.26.31-1.88.47"/>
  <path class="cls-2" d="M164.93,184.17c-.24.16-.47.31-.71.47"/>
  <path class="cls-2" d="M171.05,162.75c-.71.24-1.41.47-2.12.71"/>
  <path class="cls-2" d="M124.43,153.8l1.41,1.41"/>
  <path class="cls-2" d="M130.55,160.16l.71.71"/>
  <path class="cls-2" d="M140.91,165.81c1.1.24,2.2.47,3.3.71"/>
</svg>