<?xml version="1.0" encoding="UTF-8"?>
<svg id="Ebene_1" data-name="Ebene 1" xmlns="http://www.w3.org/2000/svg" viewBox="0 0 213.21 420.8">
  <defs>
    <style>
      .cls-1, .cls-2 {
        stroke: #1d1d1b;
        stroke-linecap: round;
        stroke-linejoin: round;
        stroke-width: .69px;
      }

      .cls-2 {
        fill: none;
      }
    </style>
  </defs>
  <path class="cls-1" d="M139.89,269.27c-2.87-4.01-6.81-5.86-11.11-8.56-4.64-2.91-8.73-4.34-13.27-6.04-4.96-1.86-8.72-2.77-14.06-2.76-6.93.02-13.71.52-20.64,1.09-5.81.48-10.95.13-16.49,2.66-2.29,1.04-5.74,1.45-8.31,1.89l-16.99,2.92c-4.65.8-9.36.13-14.15.43-2.33.15-11.35-.87-12.39-3.59l-6.82-17.76c-3.51-9.14-4.79-17.87-4.81-27.59-.11-10.89.31-23.94-.46-34.72-.49-5.79,3.21-10.6,9.11-11.38l12.11-1.6,17.43-1.08c8.11-.81,23.09-3.28,31.06-3.36,4.09.04,7.36-1.75,9.39-5.45.43-10.93-.18-22.38-.18-33.43-.1-10.09-.78-20.15-.02-30.06.39-5.03,3.16-7.84,7.6-9.21,10.25-3.15,20.91-4.78,31.66-3.46,3.57.44,7.35.11,11.01.07,5.05-.06,13.76,1.14,18.57,2.58,12.72,3.81,23.91,3.23,30.66,14.56,2.89,4.86,3.57,9.75,4.25,15.12.56,4.35.81,8.31.24,12.71-.92,7.17-.12,14.26-.89,21.49l-2.81,26.33c-.45,4.19.81,6.77,3.33,9.75l12.63,14.93c2.09,2.48,3.83,5.02,6.46,7.04,6.15,4.72,9.74,11.71,9.83,19.65.03,2.25.54,4.75,1.03,6.91.15.67-.68,2.1-.7,2.78l-.41,10.09c-.19,4.78-.79,9.17-1.42,13.89-1.3,9.77-.37,25.63-2.75,32.73-2.14,6.38-16.18,6.75-21.35,7.41-8.17,1.04-16.87,1.51-24.87-.71-5.38-1.5-7.71-7.13-10.63-11.22l-10.81-15.1ZM74.1,251.58c2.31-.18,4.65-.25,7.08-.42,7-.51,13.71-1.12,20.7-1.07,4.59.04,8.1.67,12.39,1.95,11.46,3.4,20.3,6.73,27.45,16.48l9.37,12.78c3.17,4.33,5.31,11.96,12.95,12.75,6.48.67,12.9,1.06,19.39.5l9.31-.8c.49-.04,1.45-.09,2.23-.27,0,0,2.4-.48,3.28-.74,2.83-.84,2.3-.41,4.66-1.99,2.64-1.77,2.31-5.1,2.99-7.72,1.55-4.77,2.46-29.98,2.92-35.48.93-11,2.6-22.63-.56-33.04-1.73-5.69-6.72-8.74-10.37-13.05l-16.85-19.91c-3.43-4.05-4.85-9.36-3.71-14.69,1.84-8.6,2.18-16.93,2.81-25.69.99-14.45,3.37-30.61-3.14-44.14-1.36-2.97-3.64-4.72-6.01-6.69-3.78-3.15-7.69-3.48-12.42-4.67l-9.41-2.38c-18.79-4.75-17.72-1.85-35.01-3.53-3.53-.34-6.97,1-10.46,1.21-5.89.34-11.57.85-17.04,2.96-3.29,1.27-5.22,3.52-5.55,7.23-.84,9.45.22,18.79.28,28.37l.22,31.84c.02,2.27-.45,4.18-1.56,6.26l2.08.56c-1.6,1.71-3.36,2.57-5.54,2.78-10.67,1.22-28.28,2.21-38.6,4.27-5.89,1.25-11.42,1.2-17.38,1.18-4.15,0-8.35,1.16-12.37,1.68-2.18.28-3.27,1.93-3.4,3.94-3.82,2.53-2.74,3.56-2.46,8.47.84-1.62.97-3.67,2.44-4.65,6.41-4.51,15.64-4.42,23.18-5.09l11.04-.16,26.02-2.11c4.92-.4,9.88-.46,14.18-3.14,6.05-3.77,3.92-18.09,3.98-24.33.03-3.36-.11-6.39-.23-9.76l-.71-20.98c-.18-5.2-2.1-21.79,7.91-23.32l18.36-2.81c5.08-.78,10.12-.7,15.26-.93,6.71-.3,13.13,1.75,19.64,2.65,2.86.4,4.75,1.05,7.21,2.57,3.57,2.2,8.09,4.42,9.48,8.85s.41,8.95,1.01,13.32c.64,4.72.22,8.98.12,13.71l-.44,22.44c-.07,3.86-.52,7.65-.35,11.49l.72,16.3c-.21,8.31,4.31,11.64,9.34,17.46,4.61,5.53,8.5,11.33,13.69,16.19,3.43,3.2,6.73,6.32,6.74,11.51,0,16.63.39,34.02-1.18,50.57-.22,2.38-.17,3.76-1.25,4.92-1.26,1.35-5.33,1.83-8.48,2.59-10.2,2.51-23.87,4.7-28.9-6.73-4.55-8.98-9.5-16.89-15.93-24.54-6.5-3.87-13.45-7.43-21.13-8.19l-16.51-1.63c-3.05-.3-15.6.18-19.01.69-6.76,1.02-13.12,1.51-19.89,2.14-7.08.66-13.74,3.22-20.75,4.25-5.5.81-10.99.72-16.3,1.82-6.87,1.42-10.75-2.85-12.94-8.73-1.77-4.75-4.05-9.16-4.51-14.45-1.36,3.23-.65,6.59.58,9.67l5.25,13.15c1.46,3.65,2.19,8.35,5.74,10.76,3.28,2.23,9.02,3.46,12.77,2.68,2.42-.51,3.26-.61,5.43-.35,5.65.67,11.26-1.16,16.86-1.89,4.6-.6,9.15-1.02,13.4-2.74,3.35-1.35,6.57-1.83,9.85-2.09M188.12,266.39c.28-6.77.29-15.71.65-22.33.57-8,.39-18.07-.65-26.06-.4-3.06-3.21-5.45-5.08-7.73-4.93-5.88-11.89-14.71-16.84-20.44-3.01-3.35-6.69-7.53-7.1-12.3-.93-10.87-.35-21.42,0-32.32.31-9.81.36-19.07-.23-28.84-.64-10.61,3.98-19.05-8.5-25.68-4.16-2.21-22.34-6.54-27.06-4.35,3.98.5,7.26.98,10.85,2.02,2.6.76,5.75.65,7.76,2.63,1.4,1.38,2.63,2.81,4.66,2.96-.94,2.22-1.34,4.22-1.2,6.45l.45,6.97c-.37,14.38-1.2,43.48-1.66,57.71-.16,5.4-.64,10.79-.2,16.15.51,6.37.59,12.11-.03,18.45-.72,7.28-.03,14.3,1.9,21.21.57,2.04,2.26,2.86,3.46,4.39l15.27,19.48c7.4,9.43,13.84,19.03,22.6,27.62.73-1.88.9-3.88.96-6ZM7.5,225.7l17.88-1.05c10.75-1.31,32.4-3.96,43.1-5.27,8.63-1.06,16.9-2.63,25.7-2.51,1.23-2.6,2.1-5.29,1.13-8.23,3.47-4.27,2.76-9.02,2.87-13.95l.75-34.14c-.3-13.17-1.17-30.66-.85-43.64.22-8.48,1.19-16.56.66-25.11-.03-.45.3-1.6.64-1.86-.14.11,8.5-1.6,9.96-2.66-4.63-1.04-5.93,1.03-12.82.77-3.56-.13-7.66.75-9.96,3.79-2.06,2.71-2.45,6.58-2.35,10.01l.77,27.8c.22,7.94.71,15.27.62,23.28-.05,4.85-.75,11.07-5.38,13.84-7.85,4.59-18.4,3.7-27.14,4.43l-23.35,1.76c-5.56.42-11.02.2-16.42,1.24-11.21,2.17-7.83,14.27-7.7,25.43.11,9.92.26,16.16,1.91,26.06ZM123.48,88.91c-1.38-.09-2.58.06-3.9.41,1.24.41,2.77.82,3.9-.41ZM115.7,95.07l-6.71-1.85c2.25-3.07,5.45-2.02,8.86-3.33-5.04-.78-9.76-.58-14.62,1.59,3.54,2.1,9.19,5.76,12.47,3.58ZM133.51,94.98l8.59-.86c-1.98-3.09-5.34-3.69-9.05-3.83.31,1.75-.46,2.66-2.38,3.46.52.52,1.97,1.32,2.84,1.23ZM129.68,91.52c-2.42-.66-4.92-1.12-7.01.54,2.24,1.05,4.8.34,7.01-.54ZM122.19,92.29c-2.42-1.42-4.77-.41-6.84.65,2.37.01,4.47-.2,6.84-.65ZM98.8,215.51c.22-.73,3.85,5.58,7.03,6.25,3.99-12.63,1.69-24.55,2-37.03l.3-12.34,1.13-19.14c.18-3.1-.47-6.03-.07-9.2.55-5.75.21-16.72.4-22.61l.64-7.24-.22-14.66c-.06-4.33-4.9-3.27-9.39-7.33-.16,6.37-.63,19.05-.98,25.36-.27,15.99,2.38,36.32,1.44,52.3,0,0-.76,13.96-.76,13.96-.33,6.1.96,12.24-.38,18.21l-2.38,10.59c-.57,2.55-2.09,5.59,0,8l5.31,6.13c.8.92,1.82,1.55,3.05,1.4-.08-1.39.3-4.04-.71-4.93-1.54-1.36-7.31-4.65-6.39-7.71ZM119.71,175.06c.41,3.27-.13,6.34-.02,9.67l.75,21.87c.19,5.63.41,10.84-.59,16.41-.58,3.26-.62,6.77.71,9.95,9.29-2.21,15.99-.45,24.86-3.58.38-7.45-4.74-13.38-4.12-21.33,1.36-15.46.23-37.98,1.23-53.19.36-4.06.56-7.47.59-11.61l.36-37.67c.03-2.87.84-5.94-.02-8.53-.31-.94-2.77-.4-3.71-.38-5.69.17-11.32.53-16.91,1.33-.99,2.39-1,4.65-1.13,7.22-.2,4.02-.88,7.88-.95,11.97l-.57,34.06.19,10.51M108.18,229.84c3.37.79,6.21,1.96,9.64,3.33.19-3.09-.22-6.19.18-9.06.5-3.57.67-6.72.58-10.3l-.67-26.82c.29-27.54,1.3-61.74,1.51-89.36-2.15-.11-4.64-.07-7.34.16-.57,2.74.1,5,.11,7.66.02,7.99-1.07,12.58-.58,19.98.49,7.35-.61,14.62-.76,22.04l-.34,16.52c-.25,6.71-.67,17.15.02,23.75.43,9.46.19,18.82-1.55,28.09-1.22,4.56-1.45,9.27-.79,13.99ZM2.83,184.26c.08-.76.08-1.43,0-2.21-.23.63-.23,1.41,0,2.21ZM3.18,191.03c0-.51-.78-.51-.78,0,0,.51.78.51.78,0ZM4.54,218.45l-1.04-15.97c-1.74-.56-.1,17.07,1.04,15.97ZM152.42,268.97c3.23,6.86,9.71,8.9,16.71,7.94l16.4-2.27c-6.12-6.6-10.9-13.04-16.13-19.69-4.1-5.22-7.9-10.23-11.55-15.76-3-4.54-6.45-8.3-10.43-12.51l.51,4.75c-6.74-.18-7.68,1.51-16.27,1.81-4.26.15-8.25.97-12.4,1.46-3.09.37-6.02-2.45-8.91-2.75-5.42-.56-9.27-3.03-12.21-7.48-1.29-1.96-3.55-3.46-4.31-5.91-9.83.11-18.87,2.41-28.46,3.54l-19.72,2.33c-4.21.5-7.67,1.5-12.09,1.42-7.88-.14-16.38,2.73-25.01,1.44.25,9.67,5.66,16.84,15.88,15.8,0,0,11.54-1.1,11.54-1.1,4.93-.47,9.2-1.87,14.13-2.91,16.84-3.52,34-4.67,51.21-4.33,11.68.23,22.41,3.24,32.71,8.36,8.37,6.89,13.49,16.35,18.38,25.84Z"/>
  <path class="cls-1" d="M185.81.41c0,.09-.14.09-.13,0,0-.09.14-.09.13,0Z"/>
  <path class="cls-1" d="M52.33,420.39c0,.09-.14.09-.13,0,0-.09.14-.09.13,0Z"/>
  <path class="cls-1" d="M138.02,226.77c-4.88,1.07-9.53,2.23-14.46,2,2.76-2.18,5.99-1.35,8.96-2.05,3.66-.87,7.23-2.08,11.07-1.24-1.74,1.07-3.61.86-5.57,1.29Z"/>
  <path class="cls-1" d="M137.6,209.35c3.6-1.95,1.82,3.73-14.25,4.35-.27.01-.12-1.1.14-1.16,4.36-1.1,8.57-.19,14.11-3.19Z"/>
  <path class="cls-1" d="M107.01,208.44c-2.88-1.05-5.44-3.75-6.08-6.78,2.38,2,4.22,4.25,6.08,6.78Z"/>
  <path class="cls-1" d="M117.46,212.93h-5.71c-.28,0-.15-1.1.11-1.21l1.15-.48c1.57.35,3.03.62,4.46,1.7Z"/>
  <path class="cls-1" d="M115.63,227.3c-1.63,1.43-4.42.85-5.36-1.14,1.83.08,3.42.38,5.36,1.14Z"/>
  <path class="cls-2" d="M142.98,225.93c-.51.13-1.02.26-1.53.38"/>
  <path class="cls-2" d="M134.35,227.47c-.19.13-.38.26-.58.38"/>
  <path class="cls-2" d="M139.33,210.02l-1.73.58"/>
  <path class="cls-2" d="M101.36,202.73l1.15,1.15"/>
  <path class="cls-2" d="M106.35,207.91l.58.58"/>
  <path class="cls-2" d="M114.78,212.51c.89.19,1.79.38,2.68.58"/>
</svg>